<svg xmlns="http://www.w3.org/2000/svg" width="36" height="36" viewBox="0 0 36 36"><g transform="translate(-123 -172)"><circle cx="18" cy="18" r="18" transform="translate(123 172)" fill="#fff"/><g transform="translate(125.362 174.36)"><path d="M28.531,14.437A11.079,11.079,0,1,0,9.755,25.4a11.227,11.227,0,0,0,8.317,3.755A11.088,11.088,0,0,0,28.531,14.437Zm-2.724,9.6c-4.947-4.31-4.474-3.779-4.325-4.046L27,22.045A9.768,9.768,0,0,1,25.807,24.034ZM9.145,22.045c6.13-2.285,5.463-2.132,5.627-1.875l-4.435,3.864A9.768,9.768,0,0,1,9.145,22.045ZM8.656,15.5l1.224.434a8.455,8.455,0,0,0,.035,4.435L8.7,20.822A9.564,9.564,0,0,1,8.656,15.5Zm1.582-3.236c5.026,4.231,4.536,3.7,4.391,3.969L9.076,14.265A9.761,9.761,0,0,1,10.238,12.264Zm6.449,2.168a3.921,3.921,0,0,0-1.1.633l-2.515-2.117A7.187,7.187,0,0,1,16.1,11.194Zm-5.548,5.48a7.179,7.179,0,0,1-.025-3.541l3.1,1.1a3.635,3.635,0,0,0,.01,1.291Zm1.035,4.25a8.5,8.5,0,0,0,3.69,2.1l-.233,1.277a9.767,9.767,0,0,1-4.439-2.52Zm3.924.809A7.19,7.19,0,0,1,13.161,23.3l2.481-2.162a3.894,3.894,0,0,0,1.044.594Zm-.633-6.888a2.606,2.606,0,1,1,2.606,2.606A2.609,2.609,0,0,1,15.466,18.083Zm4.58-6.888a7.187,7.187,0,0,1,3.024,1.753l-2.515,2.117a3.921,3.921,0,0,0-1.1-.633Zm7.023,3.071c-6.165,2.185-5.5,2.045-5.662,1.786l4.5-3.788A9.761,9.761,0,0,1,27.068,14.265ZM25,19.911l-3.087-1.15a3.634,3.634,0,0,0,.01-1.291l3.1-1.1A7.18,7.18,0,0,1,25,19.911ZM20.5,21.14,22.983,23.3a7.19,7.19,0,0,1-2.937,1.669l-.588-3.236A3.894,3.894,0,0,0,20.5,21.14Zm-.222,5.119a8.5,8.5,0,0,0,3.69-2.1l.982.855a9.767,9.767,0,0,1-4.439,2.52Zm5.95-5.891a8.455,8.455,0,0,0,.035-4.435l1.224-.434a9.57,9.57,0,0,1-.04,5.323Zm-1.164-9.1-.995.837a8.48,8.48,0,0,0-3.79-2.2l.233-1.278A9.77,9.77,0,0,1,25.065,11.269ZM19.232,8.385c-1.174,6.46-1.005,5.789-1.16,5.789s.013.666-1.16-5.789A8.975,8.975,0,0,1,19.232,8.385Zm-3.6.245.233,1.278a8.48,8.48,0,0,0-3.79,2.2l-.995-.837A9.77,9.77,0,0,1,15.632,8.63Zm1.28,19.151c1.174-6.459,1.006-5.789,1.16-5.789s-.014-.67,1.16,5.789A8.974,8.974,0,0,1,16.912,27.781Z" transform="translate(-2.434 -2.444)" fill="#a34122"/><path d="M31.276,15.638a15.638,15.638,0,1,0-15.64,15.638A15.653,15.653,0,0,0,31.276,15.638ZM26.03,23.9a.652.652,0,0,0-1.237.412l.6,1.81a14.275,14.275,0,0,1-8.844,3.816l.355-1.065a.652.652,0,0,0-1.237-.412l-.5,1.5a14.267,14.267,0,0,1-8.966-3.542l1.167-.389a.652.652,0,0,0-.412-1.237l-1.81.6a14.275,14.275,0,0,1-3.816-8.844c1.173.392,1.13.388,1.271.388a.652.652,0,0,0,.206-1.27l-1.5-.5A14.273,14.273,0,0,1,4.936,6.116c.369.739.448,1.052.929,1.052a.652.652,0,0,0,.583-.943L5.9,5.132a14.28,14.28,0,0,1,8.823-3.8L14.368,2.4a.652.652,0,0,0,1.237.412l.5-1.5a14.273,14.273,0,0,1,9.057,3.621l-.692.345a.652.652,0,0,0,.583,1.166L26.144,5.9a14.28,14.28,0,0,1,3.8,8.823l-1.065-.355a.652.652,0,0,0-.412,1.237l1.5.5a14.267,14.267,0,0,1-3.542,8.966Z" transform="translate(0 0)" fill="#a34122"/><circle cx="1" cy="1" r="1" transform="translate(14.638 14.64)" fill="#a34122"/></g></g></svg>