<svg xmlns="http://www.w3.org/2000/svg" width="11" height="16" viewBox="0 0 11 16">
  <path id="icon-user-account" d="M1178,23h-5a3,3,0,0,1-3-3V18a2.99,2.99,0,0,1,2.025-2.824A5.328,5.328,0,0,1,1171,12a4.525,4.525,0,1,1,9,0,5.328,5.328,0,0,1-1.025,3.176A2.99,2.99,0,0,1,1181,18v2A3,3,0,0,1,1178,23Zm1-11a3.531,3.531,0,1,0-7,0,3.531,3.531,0,1,0,7,0Zm1,6.25a2.3,2.3,0,0,0-1.888-2.184,4.121,4.121,0,0,1-5.224,0A2.3,2.3,0,0,0,1171,18.25v1.5a2.359,2.359,0,0,0,2.454,2.25h4.091A2.359,2.359,0,0,0,1180,19.75Z" transform="translate(-1170 -7)" fill="#a0b5df"/>
</svg>
