<svg xmlns="http://www.w3.org/2000/svg" width="13.958" height="13.957" viewBox="0 0 13.958 13.957"><g transform="translate(-443 -441)"><path d="M1088.523,142.957a.433.433,0,0,1-.308-.128l-4.224-4.265a5.461,5.461,0,1,1,.608-.624l4.23,4.271a.438.438,0,0,1,0,.617A.429.429,0,0,1,1088.523,142.957Zm-8.093-13.1a4.59,4.59,0,1,0,4.57,4.59A4.585,4.585,0,0,0,1080.43,129.86Z" transform="translate(-632 312)" fill="#7e7f84"/><line y2="6" transform="translate(448.5 443.5)" fill="none" stroke="#707070" stroke-width="1"/><line y2="6" transform="translate(451.5 446.5) rotate(90)" fill="none" stroke="#707070" stroke-width="1"/></g></svg>