<svg xmlns="http://www.w3.org/2000/svg" width="63.651" height="22.001" viewBox="0 0 63.651 22.001"><g transform="translate(-174 -1585)"><g transform="translate(-320.594 350.576)"><path d="M538.606,1244.678a.7.7,0,0,1,.516.224.721.721,0,0,1,.222.521.677.677,0,0,1-.222.507.722.722,0,0,1-.516.212H534.92a.776.776,0,0,1-.531-.212.66.66,0,0,1-.236-.507.7.7,0,0,1,.236-.521.752.752,0,0,1,.531-.224Zm-5.218,5.042,2.595,2.48a.651.651,0,0,1,.206.492.709.709,0,0,1-.737.717.688.688,0,0,1-.531-.224l-2.595-2.478a.661.661,0,0,1-.206-.495.747.747,0,0,1,.206-.521.647.647,0,0,1,.531-.211.73.73,0,0,1,.531.24m-.531-8.366a.752.752,0,0,1-.546-.212.676.676,0,0,1-.221-.507.616.616,0,0,1,.236-.493l2.565-2.478a.745.745,0,0,1,1.3.493.658.658,0,0,1-.206.493l-2.595,2.48a.69.69,0,0,1-.531.224m-5.543,10.338a.688.688,0,0,1,.531-.224.758.758,0,0,1,.545.21.7.7,0,0,1,.222.523v3.52a.66.66,0,0,1-.222.493.759.759,0,0,1-.545.212.709.709,0,0,1-.531-.212.683.683,0,0,1-.207-.493v-3.52a.731.731,0,0,1,.207-.508m1.062-12.55a.7.7,0,0,1-.531.212.783.783,0,0,1-.546-.2.678.678,0,0,1-.221-.534v-3.492a.664.664,0,0,1,.221-.493.764.764,0,0,1,.546-.212.716.716,0,0,1,.531.212.687.687,0,0,1,.206.493v3.492a.719.719,0,0,1-.206.521m-.561,10.522a4.387,4.387,0,0,0,3.141-1.253,4.006,4.006,0,0,0,1.313-3,3.952,3.952,0,0,0-1.3-2.957,4.395,4.395,0,0,0-3.156-1.239,4.306,4.306,0,0,0-3.11,1.239,4.071,4.071,0,0,0-1.312,2.957,4.148,4.148,0,0,0,1.312,3,4.288,4.288,0,0,0,3.11,1.253m-4.186-8.253a6.137,6.137,0,0,1,8.4,0,5.5,5.5,0,0,1,0,8.029,6.145,6.145,0,0,1-8.4,0,5.5,5.5,0,0,1,0-8.029m-.8,8.1.324-.013s.069.069.207.212a.7.7,0,0,1,.207.505.749.749,0,0,1-.207.521l-2.6,2.452a.688.688,0,0,1-.53.224l-.03.028a.657.657,0,0,1-.5-.224.748.748,0,0,1-.207-.521.648.648,0,0,1,.207-.492l2.595-2.48a.8.8,0,0,1,.531-.212m-.56-8.379-2.595-2.452a.729.729,0,0,1-.207-.507.708.708,0,0,1,.221-.506.666.666,0,0,1,.531-.211.891.891,0,0,1,.545.211l2.565,2.478a.617.617,0,0,1,.237.493.749.749,0,0,1-.207.521.715.715,0,0,1-.5.226.025.025,0,0,1-.029-.028.783.783,0,0,1-.56-.224m-1,3.789a.7.7,0,0,1,.207.505.744.744,0,0,1-.207.521.683.683,0,0,1-.531.226h-3.656a.73.73,0,0,1-.546-.226.7.7,0,0,1-.221-.505.692.692,0,0,1,.236-.508.752.752,0,0,1,.531-.224h3.656a.7.7,0,0,1,.531.212" fill="#231f20"/><path d="M504.926,1248.635a3.054,3.054,0,0,1,1.238,1.183,3.19,3.19,0,0,1,.443,1.633,3.1,3.1,0,0,1-1.018,2.324,3.529,3.529,0,0,1-4.865,0,3.151,3.151,0,0,1-.53-4,3.294,3.294,0,0,1,1.312-1.2l.884-.479v-7.014h1.681v7.041Zm-4.792,5.689a4.411,4.411,0,0,0,6.074,0,3.86,3.86,0,0,0,1.253-2.873,3.966,3.966,0,0,0-2.123-3.521l-.413-.253v-10.761a1.493,1.493,0,0,0-.5-1.14,1.765,1.765,0,0,0-2.388,0,1.489,1.489,0,0,0-.5,1.14v10.7l-.413.225a4.134,4.134,0,0,0-1.637,1.507,3.908,3.908,0,0,0-.6,2.1,3.857,3.857,0,0,0,1.254,2.873m5.617-7.1a5.031,5.031,0,0,1,1.843,1.775,4.718,4.718,0,0,1-.811,5.914,5.075,5.075,0,0,1-3.641,1.438,5.022,5.022,0,0,1-3.626-1.437,4.767,4.767,0,0,1-.767-5.985,5.1,5.1,0,0,1,1.931-1.788v-10.225a2.284,2.284,0,0,1,.738-1.718,2.653,2.653,0,0,1,3.6,0,2.287,2.287,0,0,1,.737,1.718Z" fill="#231f20"/><text transform="translate(494.594 1248.959)" fill="#327796" font-size="12" font-family="PTSans-Italic, PT Sans" font-style="italic"><tspan x="0" y="0" letter-spacing="2.733em"> </tspan><tspan y="0"> </tspan></text><text transform="translate(518.245 1248.704)" fill="#327796" font-size="12" font-family="PTSans-Italic, PT Sans" font-style="italic"><tspan x="0" y="0" letter-spacing="2.733em"> </tspan><tspan y="0"> </tspan></text></g><path d="M206.719,1606.789a.683.683,0,0,1-.207-.493v-3.52a.73.73,0,0,1,.207-.509.689.689,0,0,1,.531-.224.756.756,0,0,1,.545.21.7.7,0,0,1,.222.523v3.52a.661.661,0,0,1-.222.493.761.761,0,0,1-.545.212A.711.711,0,0,1,206.719,1606.789Zm-27.8-1.3a4.767,4.767,0,0,1-.767-5.985,5.1,5.1,0,0,1,1.931-1.788v-10.226a2.283,2.283,0,0,1,.738-1.718,2.653,2.653,0,0,1,3.6,0,2.288,2.288,0,0,1,.736,1.718v10.31a5.032,5.032,0,0,1,1.843,1.776,4.719,4.719,0,0,1-.811,5.914,5.077,5.077,0,0,1-3.641,1.437A5.025,5.025,0,0,1,178.92,1605.492Zm2.522-19.139a1.488,1.488,0,0,0-.5,1.14v10.7l-.412.226a4.129,4.129,0,0,0-1.637,1.507,3.911,3.911,0,0,0-.6,2.1,3.858,3.858,0,0,0,1.254,2.873,4.413,4.413,0,0,0,6.074,0,3.861,3.861,0,0,0,1.253-2.873,3.968,3.968,0,0,0-2.123-3.522l-.412-.253v-10.76a1.494,1.494,0,0,0-.5-1.14,1.764,1.764,0,0,0-2.388,0Zm-1.313,18a3.15,3.15,0,0,1-.53-4,3.3,3.3,0,0,1,1.312-1.2l.884-.479v-7.015h1.681v7.042l.856.508a3.063,3.063,0,0,1,1.237,1.183,3.191,3.191,0,0,1,.443,1.634,3.1,3.1,0,0,1-1.018,2.324,3.53,3.53,0,0,1-4.865,0Zm18.983-.563a.75.75,0,0,1-.206-.521.65.65,0,0,1,.206-.491l2.595-2.479a.8.8,0,0,1,.531-.212l.325-.014s.068.069.206.212a.7.7,0,0,1,.207.5.75.75,0,0,1-.207.521l-2.6,2.452a.688.688,0,0,1-.53.224l-.03.028A.658.658,0,0,1,199.112,1603.788Zm15.214-.028-2.595-2.478a.661.661,0,0,1-.205-.495.745.745,0,0,1,.205-.52.644.644,0,0,1,.531-.212.73.73,0,0,1,.531.24l2.595,2.479a.65.65,0,0,1,.206.491.707.707,0,0,1-.206.509.715.715,0,0,1-.531.209A.689.689,0,0,1,214.326,1603.76Zm-11.292-3.746a5.5,5.5,0,0,1,0-8.028,6.135,6.135,0,0,1,8.4,0,5.5,5.5,0,0,1,0,8.028,6.143,6.143,0,0,1-8.4,0Zm1.076-6.986a4.068,4.068,0,0,0-1.311,2.957,4.147,4.147,0,0,0,1.311,3,4.288,4.288,0,0,0,3.11,1.254,4.389,4.389,0,0,0,3.141-1.254,4.006,4.006,0,0,0,1.312-3,3.948,3.948,0,0,0-1.3-2.957,4.392,4.392,0,0,0-3.155-1.239A4.3,4.3,0,0,0,204.109,1593.029Zm-7.621,3.717a.73.73,0,0,1-.545-.226.7.7,0,0,1-.221-.506.691.691,0,0,1,.236-.508.754.754,0,0,1,.531-.225h3.656a.7.7,0,0,1,.531.212.7.7,0,0,1,.207.5.744.744,0,0,1-.207.521.684.684,0,0,1-.531.226Zm17.838-.028a.778.778,0,0,1-.531-.211.66.66,0,0,1-.236-.508.7.7,0,0,1,.236-.52.753.753,0,0,1,.531-.225h3.686a.7.7,0,0,1,.516.225.721.721,0,0,1,.222.52.678.678,0,0,1-.222.508.721.721,0,0,1-.516.211Zm-12.089-4.788a.78.78,0,0,1-.56-.225l-2.595-2.452a.729.729,0,0,1-.207-.508.708.708,0,0,1,.221-.506.669.669,0,0,1,.531-.212.894.894,0,0,1,.545.212l2.566,2.478a.617.617,0,0,1,.237.492.748.748,0,0,1-.207.521.717.717,0,0,1-.5.227C202.247,1591.958,202.237,1591.948,202.237,1591.93Zm9.479-.212a.678.678,0,0,1-.221-.508.616.616,0,0,1,.236-.492l2.566-2.478a.745.745,0,0,1,1.3.493.656.656,0,0,1-.206.492l-2.595,2.479a.688.688,0,0,1-.531.225A.752.752,0,0,1,211.716,1591.718Zm-5.012-1.986a.678.678,0,0,1-.221-.535V1585.7a.664.664,0,0,1,.221-.493.766.766,0,0,1,.546-.212.719.719,0,0,1,.531.212.69.69,0,0,1,.205.493v3.492a.723.723,0,0,1-.205.521.705.705,0,0,1-.531.211A.784.784,0,0,1,206.7,1589.731Z" fill="#f16f3e"/></g></svg>