<svg xmlns="http://www.w3.org/2000/svg" xmlns:xlink="http://www.w3.org/1999/xlink"><symbol id="icon-arrow-button" viewBox="0 0 20 20"><path d="M0,10A10,10,0,1,1,10,20,10,10,0,0,1,0,10Zm1.562,0A8.438,8.438,0,1,0,10,1.562,8.437,8.437,0,0,0,1.562,10Zm6.251,3.125L10.938,10,7.813,6.875l1.25-1.25L13.437,10,9.063,14.375Z" fill="#fff"/></symbol><symbol id="icon-basket" viewBox="0 0 16 15">
  <path id="icon-basket" d="M1059,67l-1.5,6a2,2,0,0,1-2,2H1050a2,2,0,0,1-2-2l-1-6h.005L1046,64h-2.5a.5.5,0,0,1,0-1h3.237l1.248,4Zm-10.833,1,.833,5a1,1,0,0,0,1,1h5.5a1,1,0,0,0,1-1l1.25-5ZM1050,76a1,1,0,1,1-1,1A1,1,0,0,1,1050,76Zm5,0a1,1,0,1,1-1,1A1,1,0,0,1,1055,76Z" transform="translate(-1043 -63)" fill="#adaeb5"/>
</symbol><symbol id="icon-home" viewBox="0 0 14.731 12.521">
  <path id="icon-home" d="M8.892,17.021V12.6h2.946v4.419h3.683V11.129h2.21L10.366,4.5,3,11.129H5.21v5.892Z" transform="translate(-3 -4.5)" fill="#f45a40"/>
</symbol><symbol id="icon-map-pin" viewBox="0 0 12.455 15">
  <g id="icon-map-pin" transform="translate(-4 -1)">
    <path id="&#x41A;&#x43E;&#x43D;&#x442;&#x443;&#x440;_1" data-name="&#x41A;&#x43E;&#x43D;&#x442;&#x443;&#x440; 1" d="M15.955,7.227c0,4.455-5.727,8.273-5.727,8.273S4.5,11.682,4.5,7.227a5.727,5.727,0,1,1,11.455,0Z" fill="none" stroke="#b6cefe" stroke-linecap="round" stroke-linejoin="round" stroke-width="1"/>
    <path id="&#x41A;&#x43E;&#x43D;&#x442;&#x443;&#x440;_2" data-name="&#x41A;&#x43E;&#x43D;&#x442;&#x443;&#x440; 2" d="M17.318,12.409A1.909,1.909,0,1,1,15.409,10.5a1.909,1.909,0,0,1,1.909,1.909Z" transform="translate(-5.182 -5.182)" fill="none" stroke="#b6cefe" stroke-linecap="round" stroke-linejoin="round" stroke-width="1"/>
  </g>
</symbol><symbol id="icon-search" viewBox="0 0 13.958 13.957">
  <path id="icon-search" d="M1088.523,142.957a.433.433,0,0,1-.308-.128l-4.224-4.265a5.461,5.461,0,1,1,.608-.624l4.23,4.271a.438.438,0,0,1,0,.617A.429.429,0,0,1,1088.523,142.957Zm-8.093-13.1a4.59,4.59,0,1,0,4.57,4.59A4.585,4.585,0,0,0,1080.43,129.86Z" transform="translate(-1075 -129)" fill="#7e7f84"/>
</symbol><symbol id="icon-user-account" viewBox="0 0 11 16">
  <path id="icon-user-account" d="M1178,23h-5a3,3,0,0,1-3-3V18a2.99,2.99,0,0,1,2.025-2.824A5.328,5.328,0,0,1,1171,12a4.525,4.525,0,1,1,9,0,5.328,5.328,0,0,1-1.025,3.176A2.99,2.99,0,0,1,1181,18v2A3,3,0,0,1,1178,23Zm1-11a3.531,3.531,0,1,0-7,0,3.531,3.531,0,1,0,7,0Zm1,6.25a2.3,2.3,0,0,0-1.888-2.184,4.121,4.121,0,0,1-5.224,0A2.3,2.3,0,0,0,1171,18.25v1.5a2.359,2.359,0,0,0,2.454,2.25h4.091A2.359,2.359,0,0,0,1180,19.75Z" transform="translate(-1170 -7)" fill="#a0b5df"/>
</symbol></svg>