<svg xmlns="http://www.w3.org/2000/svg" width="17.054" height="17.054" viewBox="0 0 17.054 17.054">
  <g id="icon-accum-blue" transform="translate(-4 -8)">
    <path id="Контур_72" data-name="Контур 72" d="M21.808,26.23l.652-1.629a.449.449,0,0,0-.417-.615c-2.852,0-2.983-.1-3.118.307-.958,2.872-1.019,2.843-.837,3.1.168.232.405.186.732.186-.378,2.273-.5,2.434-.137,2.636a.448.448,0,0,0,.514-.054c3.933-3.441,3.864-3.243,3.715-3.637C22.78,26.172,22.5,26.23,21.808,26.23Zm-1.034.7a.54.54,0,0,0,.524.2L19.55,28.656l.242-1.455a.449.449,0,0,0-.443-.522h-.275l.6-1.8h1.706C20.688,26.611,20.6,26.669,20.773,26.931Z" transform="translate(-7.72 -8.806)" fill="#083c50"/>
    <path id="Контур_73" data-name="Контур 73" d="M20.6,22.361h-.449V14.283H20.6a.448.448,0,0,0,.449-.449v-1.8a.448.448,0,0,0-.449-.449h-.449V10.244a.448.448,0,0,0-.449-.449h-.449V8.449A.448.448,0,0,0,18.81,8h-1.8a.448.448,0,0,0-.449.449V9.8h-.449a.448.448,0,0,0-.449.449V11.59H9.385V10.244A.448.448,0,0,0,8.937,9.8H8.488V8.449A.448.448,0,0,0,8.039,8h-1.8a.448.448,0,0,0-.449.449V9.8H5.346a.448.448,0,0,0-.449.449V11.59H4.449A.448.448,0,0,0,4,12.039v1.8a.448.448,0,0,0,.449.449H4.9v8.078H4.449A.448.448,0,0,0,4,22.81v1.8a.448.448,0,0,0,.449.449H20.6a.448.448,0,0,0,.449-.449v-1.8A.448.448,0,0,0,20.6,22.361ZM17.463,8.9h.9v.9h-.9Zm-.9,1.8h2.693v.9H16.566ZM6.693,8.9h.9v.9h-.9Zm-.9,1.8H8.488v.9H5.8Zm-.9,1.8H20.156v.9H4.9Zm14.361,1.8v8.078H5.8V14.283Zm.9,9.873H4.9v-.9H20.156Z" fill="#083c50"/>
  </g>
</svg>
