<svg xmlns="http://www.w3.org/2000/svg" width="502.766" height="96.156" viewBox="0 0 502.766 96.156"><path d="M680.75,265.3c-.633-.411-1.282-.054-1.915.132-.32.094-.647.158-.969.249-1.948.543-4.069,1.157-6.158,1.757-.327-.017-3.526.985-4.512,1.279-2.625.78.681-1.528-.02-2.338-.425-.491-1.609-.149-2.733.3-1.513.6-6.141.881-6.3.6s9.176-3.816,7.951-5.611c-.56-.822-3.308-1.556-7.693-1.556a57.99,57.99,0,0,0-16.653,2.3c-5.147,1.535-6.174,3.266-5.072,4.8.918,1.279,2.933,1.8,10.879,2.01-.54.164-1.122.281-1.725.513-2.208.849-17.4,2.208-14.7-1.327,3.333-4.363.888-3.462-2.087-2.687-.639.166-4.933,1.474-5.644,1.655-2.754.7-.269.078-3.024.763a.734.734,0,0,1-.151.007c-.145-.893.671-1.274,1.1-1.832,1.243-1.633,2.583-3.192,3.84-4.814.368-.475.082-.948-.509-.962a6.581,6.581,0,0,0-2.074.41c-5.2,1.584-10.386,3.2-15.616,4.674-3.864,1.088-7.784,1.978-11.686,2.934a1.114,1.114,0,0,1-.886-.1c-.347-.351,0-.727.227-1.011,1.08-1.362,2.231-2.668,3.261-4.066.535-.727,1.816-1.416,1.287-2.319-.61-1.043-1.828-.28-2.763-.015q-12.047,3.415-24.084,6.861a3.18,3.18,0,0,1-1.978.234c1.017-1.275,2.5-2.143,3.245-3.648.51-1.034,1.414-2.129.508-3.281-.815-1.034-2.02-.6-3.088-.332-5.74,1.437-11.439,3.009-17.058,4.868-3.52,1.165-7.024,2.367-10.452,3.781-.319.131-.771.473-1.048.055-.185-.279.233-.544.421-.777,1.643-2.027,3.312-4.033,4.948-6.065.422-.525,1.223-1.085.741-1.8-.441-.657-1.3-.288-1.993-.172a4.3,4.3,0,0,0-.444.162c-6.594,1.887-13.186,3.787-19.788,5.651-2.124.6-4.268,1.127-6.414,1.642-.352.084-.978.065-1.1-.132-.241-.4.276-.636.561-.877.362-.307.76-.572,1.107-.894.947-.879,1.842-1.859,1.569-3.258-.3-1.558-1.692-1.952-2.982-2.376-.148-.049-.314-.042-.466-.08a24.072,24.072,0,0,0-8.26-.289,150.553,150.553,0,0,0-19.565,3.46c-5.153,1.195-10.185,2.812-15.3,4.152-.762.2-1.495.54-2.272.1a33.9,33.9,0,0,0,3.656-4.239c.649-.786,2-1.643,1.22-2.743-.679-.954-2.05-.34-3.114-.131a205.4,205.4,0,0,0-24.656,6.673c-.6.2-1.194.417-1.8.569-.174.043-.4-.115-.6-.181a1.5,1.5,0,0,1,.162-.432c1.039-1.3,2.114-2.564,3.128-3.879.6-.773,1.827-1.536,1.127-2.588-.621-.933-1.894-.428-2.876-.237-4.1.8-8.17,1.779-12.2,2.88-4.871,1.327-9.715,2.743-14.486,4.4-.219.076-.523.16-.64-.086a.715.715,0,0,1,.137-.606c1.259-1.525,2.564-3.012,3.8-4.553.459-.57,1.454-1.157.836-1.965-.506-.662-1.465-.262-2.228-.046-5.084,1.44-10.176,2.85-15.249,4.323-5.453,1.585-10.806,3.518-16.366,4.726a19.66,19.66,0,0,1-5.625.707c-1.329-.1-1.979-.606-2.239-1.71a1.975,1.975,0,0,1,1.535-2.672c3.235-1.022,6.488-1.988,9.721-3.014a5.635,5.635,0,0,0,2.883-1.549,1.391,1.391,0,0,0,.249-1.734c-.317-.468-.876-.23-1.312-.1-3.319,1.017-6.644,2.021-9.942,3.1a9.213,9.213,0,0,1-5.51.488c-1.666-.455-2.065-.18-2.773,1.344-.278.6-.465,1.147-1.177,1.326-2.753.7-5.5,1.412-8.255,2.1-.2.05-.57-.014-.647-.148-.167-.295.057-.585.257-.828,1.658-2.016,3.339-4.013,4.971-6.05a11.725,11.725,0,0,1,3.2-2.767,64.385,64.385,0,0,0,16.025-13.246,37.052,37.052,0,0,0,7.869-14.2,8.328,8.328,0,0,0,.379-3.273c-.122-1.018-.7-1.361-1.677-1.053a6.922,6.922,0,0,0-2.615,1.594c-1.45,1.342-2.907,2.686-4.257,4.128-7.737,8.262-14.908,17.014-22.131,25.72a10.512,10.512,0,0,1-3.879,2.977,109.465,109.465,0,0,1-16.765,5.774c-1.883.505-3.7,1.3-5.693,1.361-.124-1,.772-1.421,1.246-2.054,1.186-1.583,2.485-3.079,3.693-4.645.355-.46.048-.944-.537-.952a6.915,6.915,0,0,0-2.078.421c-5.744,1.729-11.48,3.481-17.251,5.114-3.34.945-6.738,1.682-10.11,2.512-.323.079-.712.09-.883-.16s.019-.613.219-.862c1.236-1.545,2.486-3.078,3.721-4.624a7.274,7.274,0,0,0,.955-1.345c.244-.516.031-.9-.605-.962a8.992,8.992,0,0,0-3.23.677c-9.815,2.7-19.53,5.766-29.445,8.106-4.824,1.14-9.64,2.313-14.66,3.52a5.426,5.426,0,0,1,2.03-1.54A55.021,55.021,0,0,0,286.3,265.7a10.384,10.384,0,0,0,1.595-1.744,1.023,1.023,0,0,0-.737-1.748,16.076,16.076,0,0,0-2.834-.174q-16.27-.017-32.54-.013a8.293,8.293,0,0,1-2.88-.284c9.193-1.956,17.77-4.048,26.27-6.449a318.673,318.673,0,0,0,41.088-14.453,36.928,36.928,0,0,0,5.7-2.9c.572-.379,1.411-.723,1.21-1.571-.189-.8-1.04-.809-1.738-.945a33.241,33.241,0,0,0-6.387-.389q-32.185,0-64.368-.013c-.591,0-1.437.328-1.731-.29s.481-1.082.861-1.542q6.2-7.507,12.437-14.982a11.464,11.464,0,0,0,1.143-1.508c.4-.683-.044-1.364-.816-1.171-2.337.585-4.682.949-6.4,3.124-4.021,5.091-8.309,9.972-12.409,15a3.443,3.443,0,0,1-3.015,1.4c-5.938-.056-11.876-.025-17.814-.025q-20.069,0-40.141.01a12.787,12.787,0,0,0-2.592.193c-1.872.389-2.374,1.19-2,3.037a19.037,19.037,0,0,0,.563,2.057q8.134,25.159,16.285,50.314a11.969,11.969,0,0,0,.781,1.98,2.093,2.093,0,0,0,2.553,1.213,2.951,2.951,0,0,0,1.623-.923c.923-.975,1.838-1.964,2.7-3q20.181-24.295,40.323-48.619a4.453,4.453,0,0,1,3.785-1.863c18.131.007,36.261-.069,54.392-.121.553,0,1.109,0,1.662.031.389.022.914,0,1.03.416.127.447-.4.605-.718.768-3.088,1.6-6.233,3.076-9.456,4.383-12.911,5.235-26.281,9-39.77,12.362-6.051,1.51-12.147,2.837-18.227,4.227-.78.179-1.638.213-1.824,1.2-.118.626.691,1.287,1.827,1.582a3.538,3.538,0,0,0,.7.105c1.026.057,2.054.14,3.081.145,12.509.058,25.018.094,37.527.174.87.005,2.217-.5,2.5.539.238.882-1.022,1.466-1.761,2.022a38.9,38.9,0,0,1-6.558,3.8,124.929,124.929,0,0,1-21.985,8.056c-.608.164-1.21.357-1.807.558a.724.724,0,0,0-.519.71.848.848,0,0,0,.542.717,4.392,4.392,0,0,0,3.234.132c4.537-1.049,9.078-2.082,13.612-3.151,14.519-3.425,29.12-6.524,43.454-10.705,2.553-.745,5.146-1.352,8.127-2.129-.748.983-1.207,1.62-1.7,2.23-1.043,1.294-2.118,2.562-3.141,3.87-.277.354-.659.809-.379,1.282a1.406,1.406,0,0,0,1.474.559c1.018-.132,2.036-.294,3.041-.505,7.732-1.628,15.316-3.806,22.862-6.133.992-.307,1.907-1.138,3.076-.645a10.121,10.121,0,0,1-1.835,2.425c-.927,1.182-1.909,2.321-2.854,3.492a.843.843,0,0,0-.154,1.079,1,1,0,0,0,1.062.348,10.06,10.06,0,0,0,1.14-.318c1.747-.5,3.5-.968,5.24-1.492,7.252-2.181,14.653-3.9,21.637-6.917.346-.15.864-.509,1.06-.232.336.476-.285.785-.547,1.119-1.077,1.368-2.183,2.712-3.281,4.065-.548.677-1.12,1.334-1.643,2.03-.315.418-.869.848-.4,1.442.327.413.845.346,1.321.212.607-.172,1.217-.337,1.824-.509,4.783-1.36,9.564-2.729,14.35-4.076,1.22-.344,1.229-.311,1.5.834.643,2.735,1.973,3.87,4.806,3.959a25.227,25.227,0,0,0,4.729-.259,96.62,96.62,0,0,0,14.416-3.775c4.438-1.419,8.95-2.577,13.451-3.776.287-.076.628-.256.787.105.064.143-.117.449-.259.622-1.2,1.474-2.424,2.926-3.62,4.4a14.526,14.526,0,0,0-1.236,1.73.607.607,0,0,0,.665.9,15.321,15.321,0,0,0,2.3-.551c6.534-2.119,13.115-4.082,19.766-5.8,2.368-.613,4.76-1.133,7.149-1.661a1.062,1.062,0,0,1,.869.187c.205.224.043.587-.172.851-.449.552-.884,1.117-1.331,1.671-1.042,1.294-2.1,2.578-3.129,3.881-.238.3-.5.659-.168,1.055a1.008,1.008,0,0,0,1.08.308c.762-.2,1.511-.45,2.265-.685,8.294-2.578,16.59-5.146,25.082-7.015.741-.162,1.694-.729,2.153.028.372.613-.555,1.207-.975,1.746-1.167,1.5-2.406,2.941-3.588,4.426-.23.289-.5.644-.277,1.071.276.539.786.509,1.244.4,1-.242,1.98-.538,2.964-.828q11.568-3.407,23.134-6.822c.429.577-.066.85-.425,1.094a13.689,13.689,0,0,0-3.018,2.66c-1.519,1.876-1.02,3.363,1.342,4.017a14.119,14.119,0,0,0,3.515.478,54.871,54.871,0,0,0,17.718-2.769,4.373,4.373,0,0,1,3.411-.085,5.886,5.886,0,0,0,3.491.2c3.678-.613,7.16-1.923,10.747-2.854,3.438-.891,6.867-1.817,10.3-2.72.212-.055.549-.143.643-.043.278.3-.033.542-.217.764-1.614,1.953-3.237,3.9-4.845,5.851a5.713,5.713,0,0,1-1.652,1.321,78.689,78.689,0,0,0-20.622,17.322c-1.059,1.227-2.055,2.495-3.017,3.784l3.428-.41a81.126,81.126,0,0,1,5.462-6.531,64.908,64.908,0,0,1,9.39-8.326,3.034,3.034,0,0,0,.94-.834c-.006-.009,0-.013.011-.018s.025-.036.035-.056c.012.017.017.033.028.05v.008h0c.449.693-.139,1.1-.51,1.544-2.447,2.9-4.919,5.778-7.365,8.676q-2.759,3.272-5.515,6.549l-.785.094-6.229.745-81.82,9.792L234.987,281.755l-.01.326L425.9,311.651l79.6-11.784-.006.012,3.336-.505,2.982-.442q-2.11,2.505-4.219,5.009a5.473,5.473,0,0,1-1.8,1.7,11.314,11.314,0,0,1,1.531-3.74c.194-.356.413-.694.62-1.04l-3.216.5a39.265,39.265,0,0,0-2.478,5.607,10.177,10.177,0,0,0-.628,2.52,1.916,1.916,0,0,0,2.825,1.971,10.729,10.729,0,0,0,3.278-2.311c2.448-2.255,4.692-4.709,6.907-7.189,1.173-1.312,2.331-2.637,3.493-3.957l99.038-15.882.056-.323L521.2,294.5q8.351-9.6,16.434-19.429a5.009,5.009,0,0,1,1.962-1.669c1.762-.7,3.52-1.408,5.254-2.173a1.974,1.974,0,0,1,2.192.254,9.4,9.4,0,0,0,3.938,1.533,30.266,30.266,0,0,0,11.31-.38c5.591-1.058,11.008-2.812,16.5-4.279,3.507-.939,7.011-1.894,10.518-2.83.214-.057.561-.118.659-.009.268.3-.069.54-.237.749-1.145,1.415-2.338,2.793-3.447,4.234-.5.644-1.5,1.286-.938,2.2.53.851,1.556.457,2.416.314a150.97,150.97,0,0,0,17.244-4.2c3.26-.945,6.484-2.009,9.728-3.006.29-.088.681-.261.9.016.231.3-.106.563-.29.784-1.216,1.459-2.461,2.895-3.663,4.365-.429.525-1.231,1.059-.851,1.8.488.949,1.372.4,2.1.191,3.645-1.037,7.285-2.088,10.931-3.121.078-.022.817-.275,1.81-.616a.4.4,0,0,1,.375.2c.322.694-.516,2,1.5,3.329,1.318.868,5.467,1.169,10.1.736a68.933,68.933,0,0,0,15.48-3.9c1,0,5.468-.1,5.909.3s-2.2,2.022-1.559,2.908c0,0-.124.557.925.753.612.114.78-.1,4.565-1.208,2.65-.776,8.2-2.281,10.032-2.846l0-.009c1.221-.341,2.455-.686,3.766-1.059a7.431,7.431,0,0,0,2.823-1.159C680.457,266.656,681.114,265.532,680.75,265.3Zm-288.3-24.958c2.227-2.656,4.426-5.336,6.638-8,.55.91-.092,1.645-.43,2.382a44.6,44.6,0,0,1-10.393,13.958,52.6,52.6,0,0,1-5.3,4.347,2.965,2.965,0,0,1-1.893.859.188.188,0,0,1-.037.07c-.015,0-.008-.012-.028-.011Q386.729,247.14,392.452,240.338Zm-155.1.991q-18.152,21.916-36.336,43.8c-1.814,2.185-2.459,2.1-3.442-.518q-7.987-21.289-15.933-42.592a9.022,9.022,0,0,1-.383-1.118c-.165-.73.069-1.268.879-1.347.706-.07,1.419-.081,2.13-.081q12.927-.008,25.855,0,13.165,0,26.329.01c.6,0,1.441-.294,1.755.309C238.547,240.453,237.727,240.875,237.35,241.329ZM514.767,265c-.685.173-1.381.3-2.066.479a10.952,10.952,0,0,0-1.58.485c-.623.267-1.148.708-.712,1.454.605,1.037-.025,1.339-.825,1.6a41.777,41.777,0,0,1-10.638,2.01,6.891,6.891,0,0,1-2.56-.4,1.085,1.085,0,0,1-.632-1.828,5.662,5.662,0,0,1,1.895-1.756,27.608,27.608,0,0,1,15.279-4.122,4.775,4.775,0,0,1,1.826.424c.384.171.724.425.738.831A.852.852,0,0,1,514.767,265Zm51.283,1.144a3.437,3.437,0,0,1-1.333,1.627,16.58,16.58,0,0,1-14.607,2.516,2.325,2.325,0,0,1-.588-.388,2.039,2.039,0,0,1,1.212-.713q6.837-1.875,13.684-3.711a4.517,4.517,0,0,1,1.167-.141C566.156,265.332,566.2,265.73,566.05,266.142Zm86.414,1.153c-8.133-.15-8.774-.11-9.716-1.188-.8-.92-.088-1.577,2.755-2.4a53.78,53.78,0,0,1,8.456-1.437c3.308-.132,3.673.286,4.138.749C659.077,264,657.058,265.285,652.465,267.294Z" transform="translate(-178.087 -215.496)" fill="#fff"/></svg>