<svg xmlns="http://www.w3.org/2000/svg" width="210" height="40" viewBox="0 0 210 40"><g transform="translate(-1135.862 -348.229)"><path d="M1334,369.777c-3.4-.063-3.666-.046-4.058-.494-.336-.383-.038-.656,1.15-1a22.5,22.5,0,0,1,3.531-.6c1.382-.055,1.533.12,1.73.312.408.406-.436.942-2.353,1.778m-36.095-.479a1.44,1.44,0,0,1-.556.676,6.955,6.955,0,0,1-6.1,1.047.993.993,0,0,1-.246-.162.858.858,0,0,1,.507-.3q2.855-.78,5.715-1.544a1.912,1.912,0,0,1,.487-.058c.238,0,.257.164.195.337m-21.421-.476c-.286.072-.577.126-.862.2a4.63,4.63,0,0,0-.66.2c-.261.112-.48.295-.3.606.252.431-.011.557-.346.666a17.559,17.559,0,0,1-4.442.837,2.9,2.9,0,0,1-1.07-.166.451.451,0,0,1-.264-.761,2.365,2.365,0,0,1,.792-.731,11.571,11.571,0,0,1,6.382-1.714,2,2,0,0,1,.763.176c.161.071.3.176.308.346a.356.356,0,0,1-.3.342m-115.874-9.847q-7.583,9.118-15.178,18.223c-.757.908-1.027.874-1.437-.216q-3.336-8.855-6.655-17.719a3.7,3.7,0,0,1-.161-.464c-.068-.3.03-.528.367-.561.3-.029.593-.034.891-.034q5.4,0,10.8,0,5.5,0,11,0c.252,0,.6-.122.733.128.141.274-.2.45-.358.638m64.785-.411c.93-1.106,1.848-2.219,2.773-3.331.228.378-.04.685-.182.992a18.529,18.529,0,0,1-4.339,5.806,22.062,22.062,0,0,1-2.216,1.809,1.234,1.234,0,0,1-.79.357c0,.017-.01.02-.015.03s0-.006-.012,0q2.391-2.828,4.781-5.658m120.419,10.382c-.264-.17-.535-.022-.8.055-.134.04-.271.067-.4.1-.814.226-1.7.482-2.573.731-.136-.007-1.472.41-1.884.532-1.1.325.285-.634-.008-.972-.177-.2-.672-.062-1.142.125a7.25,7.25,0,0,1-2.633.248c-.068-.119,3.832-1.588,3.321-2.335-.234-.342-1.382-.646-3.213-.646a24.271,24.271,0,0,0-6.956.957c-2.15.637-2.58,1.358-2.118,2,.383.533,1.224.75,4.543.837-.225.069-.468.117-.72.213-.922.354-7.269.919-6.141-.552,1.392-1.815.37-1.44-.873-1.119-.266.07-2.059.614-2.356.689-1.15.289-.113.032-1.263.318a.332.332,0,0,1-.064,0c-.06-.371.281-.53.457-.762.52-.679,1.079-1.328,1.605-2,.154-.2.035-.393-.213-.4a2.728,2.728,0,0,0-.865.17c-2.171.658-4.34,1.333-6.523,1.943-1.614.454-3.253.824-4.881,1.22a.467.467,0,0,1-.371-.041c-.143-.146,0-.3.1-.421.45-.567.932-1.11,1.361-1.691.224-.3.759-.589.538-.964-.255-.434-.763-.117-1.154-.006q-5.032,1.419-10.059,2.853a1.325,1.325,0,0,1-.826.1c.425-.53,1.044-.891,1.354-1.517.214-.429.591-.885.213-1.365-.341-.431-.843-.249-1.29-.138-2.4.6-4.779,1.252-7.125,2.026-1.471.484-2.933.984-4.365,1.572-.134.056-.323.2-.438.024-.078-.117.1-.226.176-.324.685-.843,1.383-1.677,2.066-2.523.176-.218.511-.451.309-.75-.185-.273-.544-.12-.832-.072a1.885,1.885,0,0,0-.185.068c-2.755.785-5.509,1.576-8.266,2.351-.886.25-1.783.469-2.678.683-.149.035-.409.028-.458-.055-.1-.168.115-.265.234-.366.152-.126.319-.237.462-.372a1.468,1.468,0,0,0,.656-1.355c-.128-.648-.708-.813-1.247-.988-.061-.021-.13-.018-.194-.034a10.092,10.092,0,0,0-3.449-.121,63.009,63.009,0,0,0-8.173,1.44c-2.151.5-4.253,1.169-6.389,1.727-.318.083-.624.224-.949.041a14.1,14.1,0,0,0,1.527-1.764c.271-.326.836-.682.509-1.14-.282-.4-.855-.141-1.3-.055a85.964,85.964,0,0,0-10.3,2.776c-.25.082-.5.173-.754.237-.073.018-.166-.048-.251-.076a.669.669,0,0,1,.069-.18c.435-.539.883-1.066,1.306-1.613.25-.323.763-.639.47-1.077-.259-.388-.791-.179-1.2-.1-1.715.334-3.412.741-5.1,1.2-2.033.553-4.056,1.14-6.05,1.83-.09.032-.218.067-.267-.036a.3.3,0,0,1,.058-.252c.525-.634,1.071-1.253,1.587-1.893.192-.238.608-.482.349-.818-.211-.276-.611-.11-.93-.019-2.124.6-4.25,1.185-6.37,1.8-2.278.658-4.513,1.463-6.836,1.966a8.237,8.237,0,0,1-2.349.294c-.556-.041-.826-.252-.935-.712a.819.819,0,0,1,.641-1.111c1.351-.425,2.709-.827,4.059-1.254a2.365,2.365,0,0,0,1.205-.644.578.578,0,0,0,.1-.721c-.133-.194-.366-.1-.548-.041-1.386.424-2.774.842-4.152,1.291a3.866,3.866,0,0,1-2.3.2c-.7-.189-.862-.075-1.157.559-.116.249-.195.478-.491.553-1.152.289-2.3.587-3.45.872-.083.022-.237-.006-.269-.061-.07-.124.024-.244.107-.345.693-.839,1.4-1.669,2.077-2.518a4.879,4.879,0,0,1,1.335-1.15,26.868,26.868,0,0,0,6.695-5.511,15.413,15.413,0,0,0,3.287-5.9,3.469,3.469,0,0,0,.157-1.362c-.051-.424-.291-.566-.7-.438a2.9,2.9,0,0,0-1.093.663c-.606.558-1.214,1.117-1.777,1.717-3.232,3.436-6.227,7.078-9.243,10.7a4.411,4.411,0,0,1-1.621,1.238,45.86,45.86,0,0,1-7,2.4,10.517,10.517,0,0,1-2.378.567c-.053-.414.321-.592.519-.855.5-.658,1.038-1.281,1.543-1.932.148-.192.02-.393-.226-.4a2.9,2.9,0,0,0-.867.175c-2.4.719-4.8,1.448-7.206,2.128-1.394.392-2.814.7-4.221,1.045-.135.033-.3.038-.37-.067s.008-.255.091-.359c.517-.643,1.039-1.281,1.554-1.923a3.03,3.03,0,0,0,.4-.56c.1-.214.013-.376-.252-.4a3.761,3.761,0,0,0-1.349.282c-4.1,1.123-8.158,2.4-12.3,3.372-2.014.474-4.026.962-6.123,1.465a2.278,2.278,0,0,1,.847-.641,23.02,23.02,0,0,0,3.172-2.364,4.313,4.313,0,0,0,.665-.725c.24-.342.114-.652-.308-.728a6.683,6.683,0,0,0-1.184-.072q-6.794-.007-13.591-.006a3.48,3.48,0,0,1-1.2-.119c3.84-.813,7.424-1.683,10.974-2.682a133.443,133.443,0,0,0,17.162-6.012,15.468,15.468,0,0,0,2.382-1.205c.239-.158.588-.3.506-.653-.08-.333-.435-.337-.728-.393a13.907,13.907,0,0,0-2.668-.161q-13.44,0-26.884-.006c-.248,0-.6.136-.723-.121s.2-.45.359-.641q2.589-3.123,5.2-6.232a4.774,4.774,0,0,0,.476-.628c.166-.284-.017-.568-.34-.487a4.3,4.3,0,0,0-2.674,1.3c-1.679,2.118-3.47,4.148-5.182,6.24a1.441,1.441,0,0,1-1.259.584c-2.481-.023-4.962-.01-7.44-.01q-8.386,0-16.767,0a5.371,5.371,0,0,0-1.083.081c-.783.161-.991.494-.836,1.263a8.276,8.276,0,0,0,.236.856q3.4,10.466,6.8,20.931a5.059,5.059,0,0,0,.328.823.875.875,0,0,0,1.067.505,1.226,1.226,0,0,0,.676-.384c.386-.405.769-.817,1.126-1.247q8.432-10.106,16.843-20.225a1.863,1.863,0,0,1,1.581-.775c7.574,0,15.147-.03,22.719-.05.231,0,.463,0,.693.012.165.009.383,0,.432.173s-.17.252-.3.319c-1.29.664-2.6,1.281-3.951,1.824a123.718,123.718,0,0,1-16.611,5.143c-2.528.628-5.075,1.18-7.615,1.759-.324.074-.683.088-.761.5-.049.262.289.536.763.659a1.472,1.472,0,0,0,.294.043c.429.024.858.059,1.286.061q7.839.036,15.676.073c.363,0,.926-.208,1.043.225.1.367-.426.61-.735.841a16.258,16.258,0,0,1-2.739,1.58,52.3,52.3,0,0,1-9.183,3.352c-.254.068-.505.147-.756.232a.3.3,0,0,0-.217.295.354.354,0,0,0,.228.3,1.841,1.841,0,0,0,1.351.055c1.894-.436,3.791-.866,5.685-1.311,6.066-1.425,12.163-2.714,18.15-4.453,1.067-.31,2.15-.563,3.4-.886-.313.409-.505.674-.709.928-.436.539-.885,1.067-1.312,1.61-.117.147-.276.337-.16.534a.592.592,0,0,0,.618.232c.424-.055.849-.123,1.269-.209,3.23-.678,6.4-1.584,9.55-2.552.414-.128.8-.474,1.284-.268a4.167,4.167,0,0,1-.767,1.008c-.387.492-.8.966-1.191,1.453a.349.349,0,0,0-.065.448.422.422,0,0,0,.444.145,4.268,4.268,0,0,0,.475-.132c.73-.206,1.463-.4,2.19-.621a82.026,82.026,0,0,0,9.037-2.878c.144-.062.361-.211.443-.1.141.2-.12.327-.229.466-.449.569-.911,1.128-1.37,1.69-.229.281-.468.555-.686.845-.131.173-.363.353-.167.6.136.172.353.143.552.088.254-.071.509-.139.762-.211q3-.85,5.994-1.7c.51-.142.513-.128.626.348a1.837,1.837,0,0,0,2.007,1.646,10.6,10.6,0,0,0,1.975-.107,40.391,40.391,0,0,0,6.021-1.571c1.854-.591,3.738-1.072,5.62-1.571.119-.032.261-.107.328.044.027.06-.049.186-.108.259-.5.613-1.012,1.217-1.512,1.832a6.156,6.156,0,0,0-.516.719.253.253,0,0,0,.278.375,6.51,6.51,0,0,0,.958-.23c2.728-.882,5.479-1.7,8.257-2.414.988-.256,1.988-.471,2.985-.691a.441.441,0,0,1,.363.079c.085.092.018.244-.072.354-.187.23-.368.464-.556.694-.435.539-.876,1.074-1.306,1.616-.1.125-.207.273-.071.439a.425.425,0,0,0,.452.127c.317-.083.63-.187.945-.285,3.464-1.073,6.93-2.141,10.477-2.917.309-.068.706-.3.9.012.155.254-.232.5-.407.726-.488.624-1.005,1.223-1.5,1.841-.095.12-.206.268-.115.445.115.225.328.212.52.165.415-.1.826-.224,1.237-.344l9.662-2.838c.18.239-.027.354-.176.454a5.694,5.694,0,0,0-1.261,1.108c-.634.78-.427,1.4.56,1.67a5.954,5.954,0,0,0,1.468.2,22.991,22.991,0,0,0,7.4-1.152,1.835,1.835,0,0,1,1.425-.035,2.459,2.459,0,0,0,1.458.084c1.536-.255,2.992-.8,4.49-1.187,1.435-.371,2.867-.756,4.3-1.132.089-.023.23-.06.269-.018.116.125-.014.226-.09.318-.674.812-1.353,1.621-2.024,2.434a2.39,2.39,0,0,1-.691.55,32.855,32.855,0,0,0-8.613,7.205c-.442.51-.857,1.037-1.26,1.575l1.432-.171a33.506,33.506,0,0,1,2.281-2.716,27.035,27.035,0,0,1,3.922-3.464,1.237,1.237,0,0,0,.392-.347s0-.006.006-.008a.222.222,0,0,1,.009-.023.034.034,0,0,1,.007.02v.082h.012c.186,0-.058.421-.213.6-1.023,1.205-2.055,2.383-3.076,3.59-.769.907-1.538,1.806-2.3,2.714l-.328.035-2.6.307-34.175,4.073-79.817-10.039,0,.134,79.746,12.3,33.249-4.9,0,.005,1.394-.21,1.244-.184q-.881,1.043-1.761,2.084a2.3,2.3,0,0,1-.753.708,4.682,4.682,0,0,1,.641-1.556c.081-.148.173-.289.259-.432l-1.343.206a16.074,16.074,0,0,0-1.035,2.333,4.2,4.2,0,0,0-.263,1.048.8.8,0,0,0,1.181.819,4.466,4.466,0,0,0,1.368-.96c1.022-.938,1.961-1.959,2.885-2.991.49-.546.973-1.1,1.459-1.646l41.367-6.606.023-.134-40.109,5.286q3.489-3.994,6.866-8.083a2.085,2.085,0,0,1,.82-.694c.736-.29,1.468-.586,2.193-.9a.827.827,0,0,1,.916.106,3.913,3.913,0,0,0,1.644.636,12.694,12.694,0,0,0,4.725-.157c2.334-.439,4.6-1.169,6.89-1.78,1.464-.39,2.927-.788,4.393-1.177.089-.024.234-.049.276,0,.111.125-.03.225-.1.312-.478.589-.976,1.162-1.44,1.761-.206.268-.628.535-.391.914.221.355.649.191,1.009.131a63.357,63.357,0,0,0,7.2-1.746c1.361-.393,2.707-.836,4.062-1.25.121-.037.285-.109.373.007s-.043.234-.121.326c-.507.607-1.027,1.2-1.528,1.816-.18.218-.515.44-.356.748.2.4.573.166.878.08,1.522-.431,3.043-.87,4.565-1.3.033-.01.342-.115.757-.257a.166.166,0,0,1,.156.084c.135.289-.216.834.625,1.384.551.362,2.282.487,4.222.306a28.887,28.887,0,0,0,6.466-1.621,11.292,11.292,0,0,1,2.467.125c.185.168-.917.842-.65,1.21,0,0-.054.232.386.313.256.048.326-.041,1.906-.5,1.106-.323,3.426-.949,4.19-1.184l0,0c.51-.141,1.024-.285,1.573-.44a3.108,3.108,0,0,0,1.179-.482c.369-.26.643-.728.491-.826" fill="#317795"/></g></svg>