<svg xmlns="http://www.w3.org/2000/svg" width="24" height="24" viewBox="0 0 24 24"><g transform="translate(-7 -17)"><path d="M19,17A12,12,0,1,0,31,29,12.014,12.014,0,0,0,19,17Zm0,23A11,11,0,1,1,30,29,11.012,11.012,0,0,1,19,40Z" transform="translate(0)" fill="#fff"/><path d="M31,38.5A2.5,2.5,0,1,0,28.5,41,2.5,2.5,0,0,0,31,38.5Zm-4,0A1.5,1.5,0,1,1,28.5,40,1.5,1.5,0,0,1,27,38.5Z" transform="translate(-9.5 -9.5)" fill="#fff"/><path d="M30.619,33.514c-.085-.02-1.332-.014-1.382-.014v-3c1.427,0,1.335.028,1.512-.074a.51.51,0,0,0,.239-.543,9,9,0,0,0-17.5,0,.51.51,0,0,0,.24.543c.155.09.075.074,1.511.074v3a8.716,8.716,0,0,0-1.419.031.506.506,0,0,0-.332.586,8.955,8.955,0,0,0,6.634,6.634.512.512,0,0,0,.6-.369c.021-.087.014-1.332.014-1.382h3c0,1.323-.018,1.341.062,1.493a.5.5,0,0,0,.555.257,8.955,8.955,0,0,0,6.634-6.634.442.442,0,0,0,0-.057A.482.482,0,0,0,31,34,.527.527,0,0,0,30.619,33.514ZM14.634,29.5a8.01,8.01,0,0,1,15.205,0h-1.1a.5.5,0,0,0-.5.5H26.269A4.5,4.5,0,0,0,18.2,30H16.236a.5.5,0,0,0-.5-.5Zm0,5h1.1a.5.5,0,0,0,.5-.5H18.2a4.52,4.52,0,0,0,2.033,2.033V38a.5.5,0,0,0-.5.5v1.1A8.085,8.085,0,0,1,14.636,34.5Zm6.288.746a3.5,3.5,0,0,1-1.933-1.933C18.823,32.9,18.622,33,16.236,33V31c2.385,0,2.585.1,2.753-.312a3.5,3.5,0,0,1,6.493,0c.166.409.35.312,2.754.312v2c-2.375,0-2.586-.1-2.754.313a3.5,3.5,0,0,1-1.933,1.933c-.414.167-.313.368-.313,2.754h-2C21.236,35.625,21.34,35.415,20.923,35.246ZM24.736,39.6V38.5a.5.5,0,0,0-.5-.5V36.033A4.52,4.52,0,0,0,26.269,34h1.967a.5.5,0,0,0,.5.5h1.1A8.085,8.085,0,0,1,24.736,39.6Z" transform="translate(-3.236 -3)" fill="#fff"/></g></svg>