<svg xmlns="http://www.w3.org/2000/svg" width="64.323" height="21.999" viewBox="0 0 64.323 21.999"><g transform="translate(-930 -1585)"><g transform="translate(431.287 300.262)"><path d="M539.031,1302.051a.781.781,0,0,1,.79.785.82.82,0,0,1-.226.568l-.9.86.9.892a.79.79,0,0,1,0,1.106.9.9,0,0,1-1.16,0l-.9-.892-.934.892a.909.909,0,0,1-.6.213.847.847,0,0,1-.58-.213.711.711,0,0,1-.242-.554.732.732,0,0,1,.226-.552l.934-.892-.934-.86a.82.82,0,0,1-.226-.568.736.736,0,0,1,.242-.553.808.808,0,0,1,.58-.232.9.9,0,0,1,.6.217l.934.889.9-.889a.9.9,0,0,1,.6-.217m-6.394,2,.933.892a.826.826,0,0,1,0,1.137.935.935,0,0,1-1.191,0l-.935-.892-.9.892a.905.905,0,0,1-.6.214.785.785,0,0,1-.564-.214.829.829,0,0,1,0-1.137l.9-.892-.9-.859a.821.821,0,0,1-.226-.569.715.715,0,0,1,.226-.537.892.892,0,0,1,1.16,0l.9.86.935-.86a.806.806,0,0,1,.58-.214.867.867,0,0,1,.6.214.709.709,0,0,1,.242.553.732.732,0,0,1-.227.554Zm-6.057-.092.9.891a.661.661,0,0,1,.289.553.735.735,0,0,1-.257.569.872.872,0,0,1-.6.23.733.733,0,0,1-.564-.247l-.935-.89-.934.89a.883.883,0,0,1-1.16,0,.682.682,0,0,1-.257-.552.733.733,0,0,1,.225-.553l.935-.891-.9-.86a.757.757,0,0,1,0-1.137.786.786,0,0,1,.6-.232.851.851,0,0,1,.564.232l.934.86.935-.86a.733.733,0,0,1,.564-.247.838.838,0,0,1,.6.247.706.706,0,0,1,.241.568.822.822,0,0,1-.273.569Zm11.631-5.776a3.41,3.41,0,0,0,2.336-.953,3.01,3.01,0,0,0,.209-4.24,3.352,3.352,0,0,0-1.933-1.074.716.716,0,0,1-.516-.277.79.79,0,0,1-.161-.584v-.368a3.881,3.881,0,0,0-1.272-2.9,4.262,4.262,0,0,0-3.045-1.214,4.337,4.337,0,0,0-2.481.739,4.164,4.164,0,0,0-1.579,1.935.747.747,0,0,1-.612.476.852.852,0,0,1-.773-.23,1.729,1.729,0,0,0-1.321-.553,1.856,1.856,0,0,0-1.3.49,1.608,1.608,0,0,0-.532,1.228,1.923,1.923,0,0,0,.033.34.763.763,0,0,1-.13.6.694.694,0,0,1-.547.324,3.249,3.249,0,0,0-1.982,1.06,2.955,2.955,0,0,0-.789,2.043,2.924,2.924,0,0,0,.983,2.211,3.408,3.408,0,0,0,2.336.953Zm1.579-7.62a4.8,4.8,0,0,1,2.432,1.691,4.4,4.4,0,0,1,.95,2.765,4.47,4.47,0,0,1-1.449,3.332,4.87,4.87,0,0,1-3.512,1.4H525.129a4.925,4.925,0,0,1-3.5-1.381,4.545,4.545,0,0,1-.5-6.145,4.9,4.9,0,0,1,2.449-1.69,3.157,3.157,0,0,1,1.064-2.244,3.444,3.444,0,0,1,2.416-.922,3.544,3.544,0,0,1,1.644.4,6.158,6.158,0,0,1,9.295-1.151,5.419,5.419,0,0,1,1.788,3.947" fill="#231f20"/><path d="M509.13,1298.971a3.079,3.079,0,0,1,1.248,1.189,3.213,3.213,0,0,1,.446,1.644,3.118,3.118,0,0,1-1.026,2.339,3.563,3.563,0,0,1-4.905,0,3.164,3.164,0,0,1-.534-4.024,3.322,3.322,0,0,1,1.323-1.206l.892-.481v-3.2h1.7v3.226ZM504.3,1304.7a4.459,4.459,0,0,0,6.125,0,3.887,3.887,0,0,0,1.263-2.893,3.99,3.99,0,0,0-2.141-3.544l-.416-.254v-10.831a1.508,1.508,0,0,0-.506-1.148,1.785,1.785,0,0,0-2.408,0,1.505,1.505,0,0,0-.506,1.148v10.774l-.416.226a4.168,4.168,0,0,0-1.651,1.518,3.95,3.95,0,0,0,.655,5m5.664-7.145a5.069,5.069,0,0,1,1.858,1.786,4.744,4.744,0,0,1-.818,5.954,5.13,5.13,0,0,1-3.672,1.446,5.076,5.076,0,0,1-3.657-1.446,4.794,4.794,0,0,1-.773-6.026,5.135,5.135,0,0,1,1.947-1.8v-10.291a2.3,2.3,0,0,1,.744-1.728,2.676,2.676,0,0,1,3.627,0,2.3,2.3,0,0,1,.743,1.728Z" fill="#231f20"/><text transform="translate(498.713 1298.681)" fill="#327796" font-size="12" font-family="PTSans-Italic, PT Sans" font-style="italic"><tspan x="0" y="0" letter-spacing="2.733em"> </tspan><tspan y="0"> </tspan></text><text transform="translate(523.036 1299.721)" fill="#327796" font-size="12" font-family="PTSans-Italic, PT Sans" font-style="italic"><tspan x="0" y="0" letter-spacing="2.733em"> </tspan><tspan y="0"> </tspan></text></g><path d="M934.961,1605.554a4.793,4.793,0,0,1-.773-6.026,5.143,5.143,0,0,1,1.948-1.8v-10.292a2.3,2.3,0,0,1,.743-1.728,2.676,2.676,0,0,1,3.627,0,2.3,2.3,0,0,1,.743,1.728v10.376a5.073,5.073,0,0,1,1.858,1.786,4.745,4.745,0,0,1-.817,5.954,5.132,5.132,0,0,1-3.672,1.445A5.077,5.077,0,0,1,934.961,1605.554Zm2.542-19.266a1.5,1.5,0,0,0-.506,1.148v10.774l-.416.226a4.167,4.167,0,0,0-1.651,1.518,3.948,3.948,0,0,0,.655,5,4.458,4.458,0,0,0,6.125,0,3.887,3.887,0,0,0,1.263-2.893,3.994,3.994,0,0,0-2.14-3.544l-.417-.254v-10.831a1.508,1.508,0,0,0-.506-1.148,1.785,1.785,0,0,0-2.408,0Zm32.219,20.236-.9-.892-.934.892a.913.913,0,0,1-.6.213.851.851,0,0,1-.58-.213.711.711,0,0,1-.242-.554.733.733,0,0,1,.226-.552l.934-.892-.934-.859a.824.824,0,0,1-.226-.569.734.734,0,0,1,.242-.553.807.807,0,0,1,.58-.232.9.9,0,0,1,.6.218l.934.888.9-.888a.9.9,0,0,1,.595-.218.782.782,0,0,1,.79.785.82.82,0,0,1-.226.569l-.9.859.9.892a.79.79,0,0,1,0,1.106.894.894,0,0,1-1.159,0Zm-6.057-.184-.935-.892-.9.892a.907.907,0,0,1-.6.214.782.782,0,0,1-.563-.214.828.828,0,0,1,0-1.137l.9-.892-.9-.859a.821.821,0,0,1-.226-.57.713.713,0,0,1,.226-.537.893.893,0,0,1,1.16,0l.9.859.935-.859a.8.8,0,0,1,.58-.214.865.865,0,0,1,.6.214.708.708,0,0,1,.242.553.731.731,0,0,1-.227.554l-.933.859.933.892a.826.826,0,0,1,0,1.137.934.934,0,0,1-1.191,0Zm-6.026-.124-.935-.89-.934.89a.883.883,0,0,1-1.159,0,.684.684,0,0,1-.257-.553.73.73,0,0,1,.225-.553l.935-.891-.9-.859a.756.756,0,0,1,0-1.137.785.785,0,0,1,.6-.232.849.849,0,0,1,.563.232l.934.859.935-.859a.733.733,0,0,1,.564-.248.835.835,0,0,1,.6.248.707.707,0,0,1,.241.567.828.828,0,0,1-.274.57l-.9.859.9.891a.66.66,0,0,1,.29.553.737.737,0,0,1-.257.57.872.872,0,0,1-.6.229A.735.735,0,0,1,957.641,1606.216ZM936.18,1604.4a3.164,3.164,0,0,1-.535-4.024,3.335,3.335,0,0,1,1.323-1.207l.892-.481v-3.2h1.695v3.226l.862.512a3.081,3.081,0,0,1,1.248,1.189,3.208,3.208,0,0,1,.446,1.643,3.118,3.118,0,0,1-1.026,2.339,3.564,3.564,0,0,1-4.906,0Zm20.237-4.395a4.924,4.924,0,0,1-3.5-1.381,4.544,4.544,0,0,1-.5-6.145,4.9,4.9,0,0,1,2.449-1.689,3.16,3.16,0,0,1,1.064-2.244,3.445,3.445,0,0,1,2.417-.922,3.546,3.546,0,0,1,1.643.4,6.157,6.157,0,0,1,9.294-1.152,5.416,5.416,0,0,1,1.788,3.947,4.8,4.8,0,0,1,2.432,1.691,4.4,4.4,0,0,1,.95,2.765,4.469,4.469,0,0,1-1.449,3.332,4.87,4.87,0,0,1-3.512,1.4Zm.628-10.323a1.606,1.606,0,0,0-.532,1.229,1.9,1.9,0,0,0,.033.339.764.764,0,0,1-.13.6.693.693,0,0,1-.548.324,3.25,3.25,0,0,0-1.981,1.059,2.956,2.956,0,0,0-.79,2.044,2.926,2.926,0,0,0,.983,2.21,3.408,3.408,0,0,0,2.336.953H969.5a3.406,3.406,0,0,0,2.336-.953,3.01,3.01,0,0,0,.21-4.239,3.353,3.353,0,0,0-1.933-1.075.712.712,0,0,1-.516-.277.786.786,0,0,1-.161-.583v-.368a3.88,3.88,0,0,0-1.272-2.9,4.263,4.263,0,0,0-3.046-1.214,4.333,4.333,0,0,0-2.48.739,4.161,4.161,0,0,0-1.579,1.935.75.75,0,0,1-.613.476.85.85,0,0,1-.773-.23,1.73,1.73,0,0,0-1.32-.553A1.855,1.855,0,0,0,957.045,1589.687Z" fill="#2fa4db"/></g></svg>