<svg xmlns="http://www.w3.org/2000/svg" width="209.82" height="2.117" viewBox="0 0 209.82 2.117">
  <path id="dot-line" d="M1.188-.828a1.164,1.164,0,0,1,.238-.793.864.864,0,0,1,.684-.27.924.924,0,0,1,.707.27,1.116,1.116,0,0,1,.254.793,1.1,1.1,0,0,1-.258.781.92.92,0,0,1-.7.273.926.926,0,0,1-.66-.246A1.07,1.07,0,0,1,1.188-.828Zm8.414,0a1.164,1.164,0,0,1,.238-.793.864.864,0,0,1,.684-.27.924.924,0,0,1,.707.27,1.116,1.116,0,0,1,.254.793,1.1,1.1,0,0,1-.258.781.92.92,0,0,1-.7.273.926.926,0,0,1-.66-.246A1.07,1.07,0,0,1,9.6-.828Zm8.414,0a1.164,1.164,0,0,1,.238-.793.864.864,0,0,1,.684-.27.924.924,0,0,1,.707.27,1.116,1.116,0,0,1,.254.793,1.1,1.1,0,0,1-.258.781.92.92,0,0,1-.7.273.926.926,0,0,1-.66-.246A1.07,1.07,0,0,1,18.016-.828Zm8.414,0a1.164,1.164,0,0,1,.238-.793.864.864,0,0,1,.684-.27.924.924,0,0,1,.707.27,1.116,1.116,0,0,1,.254.793,1.1,1.1,0,0,1-.258.781.92.92,0,0,1-.7.273.926.926,0,0,1-.66-.246A1.07,1.07,0,0,1,26.43-.828Zm8.414,0a1.164,1.164,0,0,1,.238-.793.864.864,0,0,1,.684-.27.924.924,0,0,1,.707.27,1.116,1.116,0,0,1,.254.793,1.1,1.1,0,0,1-.258.781.92.92,0,0,1-.7.273.926.926,0,0,1-.66-.246A1.07,1.07,0,0,1,34.844-.828Zm8.414,0a1.164,1.164,0,0,1,.238-.793.864.864,0,0,1,.684-.27.924.924,0,0,1,.707.27,1.116,1.116,0,0,1,.254.793,1.1,1.1,0,0,1-.258.781.92.92,0,0,1-.7.273.926.926,0,0,1-.66-.246A1.07,1.07,0,0,1,43.258-.828Zm8.414,0a1.164,1.164,0,0,1,.238-.793.864.864,0,0,1,.684-.27.924.924,0,0,1,.707.27,1.116,1.116,0,0,1,.254.793,1.1,1.1,0,0,1-.258.781.92.92,0,0,1-.7.273.926.926,0,0,1-.66-.246A1.07,1.07,0,0,1,51.672-.828Zm8.414,0a1.164,1.164,0,0,1,.238-.793.864.864,0,0,1,.684-.27.924.924,0,0,1,.707.27,1.116,1.116,0,0,1,.254.793,1.1,1.1,0,0,1-.258.781.92.92,0,0,1-.7.273.926.926,0,0,1-.66-.246A1.07,1.07,0,0,1,60.086-.828Zm8.414,0a1.164,1.164,0,0,1,.238-.793.864.864,0,0,1,.684-.27.924.924,0,0,1,.707.27,1.116,1.116,0,0,1,.254.793,1.1,1.1,0,0,1-.258.781.92.92,0,0,1-.7.273.926.926,0,0,1-.66-.246A1.07,1.07,0,0,1,68.5-.828Zm8.414,0a1.164,1.164,0,0,1,.238-.793.864.864,0,0,1,.684-.27.924.924,0,0,1,.707.27,1.116,1.116,0,0,1,.254.793,1.1,1.1,0,0,1-.258.781.92.92,0,0,1-.7.273.926.926,0,0,1-.66-.246A1.07,1.07,0,0,1,76.914-.828Zm8.414,0a1.164,1.164,0,0,1,.238-.793.864.864,0,0,1,.684-.27.924.924,0,0,1,.707.27,1.116,1.116,0,0,1,.254.793,1.1,1.1,0,0,1-.258.781.92.92,0,0,1-.7.273.926.926,0,0,1-.66-.246A1.07,1.07,0,0,1,85.328-.828Zm8.414,0a1.164,1.164,0,0,1,.238-.793.864.864,0,0,1,.684-.27.924.924,0,0,1,.707.27,1.116,1.116,0,0,1,.254.793,1.1,1.1,0,0,1-.258.781.92.92,0,0,1-.7.273A.926.926,0,0,1,94-.02,1.07,1.07,0,0,1,93.742-.828Zm8.414,0a1.164,1.164,0,0,1,.238-.793.864.864,0,0,1,.684-.27.924.924,0,0,1,.707.27,1.116,1.116,0,0,1,.254.793,1.1,1.1,0,0,1-.258.781.92.92,0,0,1-.7.273.926.926,0,0,1-.66-.246A1.07,1.07,0,0,1,102.156-.828Zm8.414,0a1.164,1.164,0,0,1,.238-.793.864.864,0,0,1,.684-.27.924.924,0,0,1,.707.27,1.116,1.116,0,0,1,.254.793,1.1,1.1,0,0,1-.258.781.92.92,0,0,1-.7.273.926.926,0,0,1-.66-.246A1.07,1.07,0,0,1,110.57-.828Zm8.414,0a1.164,1.164,0,0,1,.238-.793.864.864,0,0,1,.684-.27.924.924,0,0,1,.707.27,1.116,1.116,0,0,1,.254.793,1.1,1.1,0,0,1-.258.781.92.92,0,0,1-.7.273.926.926,0,0,1-.66-.246A1.07,1.07,0,0,1,118.984-.828Zm8.414,0a1.164,1.164,0,0,1,.238-.793.864.864,0,0,1,.684-.27.924.924,0,0,1,.707.27,1.116,1.116,0,0,1,.254.793,1.1,1.1,0,0,1-.258.781.92.92,0,0,1-.7.273.926.926,0,0,1-.66-.246A1.07,1.07,0,0,1,127.4-.828Zm8.414,0a1.164,1.164,0,0,1,.238-.793.864.864,0,0,1,.684-.27.924.924,0,0,1,.707.27,1.116,1.116,0,0,1,.254.793,1.1,1.1,0,0,1-.258.781.92.92,0,0,1-.7.273.926.926,0,0,1-.66-.246A1.07,1.07,0,0,1,135.813-.828Zm8.414,0a1.164,1.164,0,0,1,.238-.793.864.864,0,0,1,.684-.27.924.924,0,0,1,.707.27,1.116,1.116,0,0,1,.254.793,1.1,1.1,0,0,1-.258.781.92.92,0,0,1-.7.273.926.926,0,0,1-.66-.246A1.07,1.07,0,0,1,144.227-.828Zm8.414,0a1.164,1.164,0,0,1,.238-.793.864.864,0,0,1,.684-.27.924.924,0,0,1,.707.27,1.116,1.116,0,0,1,.254.793,1.1,1.1,0,0,1-.258.781.92.92,0,0,1-.7.273.926.926,0,0,1-.66-.246A1.07,1.07,0,0,1,152.641-.828Zm8.414,0a1.164,1.164,0,0,1,.238-.793.864.864,0,0,1,.684-.27.924.924,0,0,1,.707.27,1.116,1.116,0,0,1,.254.793,1.1,1.1,0,0,1-.258.781.92.92,0,0,1-.7.273.926.926,0,0,1-.66-.246A1.07,1.07,0,0,1,161.055-.828Zm8.414,0a1.164,1.164,0,0,1,.238-.793.864.864,0,0,1,.684-.27.924.924,0,0,1,.707.27,1.116,1.116,0,0,1,.254.793,1.1,1.1,0,0,1-.258.781.92.92,0,0,1-.7.273.926.926,0,0,1-.66-.246A1.07,1.07,0,0,1,169.469-.828Zm8.414,0a1.164,1.164,0,0,1,.238-.793.864.864,0,0,1,.684-.27.924.924,0,0,1,.707.27,1.116,1.116,0,0,1,.254.793,1.1,1.1,0,0,1-.258.781.92.92,0,0,1-.7.273.926.926,0,0,1-.66-.246A1.07,1.07,0,0,1,177.883-.828Zm8.414,0a1.164,1.164,0,0,1,.238-.793.864.864,0,0,1,.684-.27.924.924,0,0,1,.707.27,1.116,1.116,0,0,1,.254.793,1.1,1.1,0,0,1-.258.781.92.92,0,0,1-.7.273.926.926,0,0,1-.66-.246A1.07,1.07,0,0,1,186.3-.828Zm8.414,0a1.164,1.164,0,0,1,.238-.793.864.864,0,0,1,.684-.27.924.924,0,0,1,.707.27,1.116,1.116,0,0,1,.254.793,1.1,1.1,0,0,1-.258.781.92.92,0,0,1-.7.273.926.926,0,0,1-.66-.246A1.07,1.07,0,0,1,194.711-.828Zm8.414,0a1.164,1.164,0,0,1,.238-.793.864.864,0,0,1,.684-.27.924.924,0,0,1,.707.27,1.116,1.116,0,0,1,.254.793,1.1,1.1,0,0,1-.258.781.92.92,0,0,1-.7.273.926.926,0,0,1-.66-.246A1.07,1.07,0,0,1,203.125-.828Z" transform="translate(-1.188 1.891)" fill="#ffa873"/>
</svg>
