<svg xmlns="http://www.w3.org/2000/svg" width="17.157" height="15.931" viewBox="0 0 17.157 15.931">
  <path id="icon-star" d="M18.756,8.89H13.122L11.411,3.781a.62.62,0,0,0-1.164,0L8.534,8.89H2.863A.615.615,0,0,0,2.25,9.5a.45.45,0,0,0,.011.1.589.589,0,0,0,.257.433L7.148,13.3,5.371,18.468a.615.615,0,0,0,.211.689.593.593,0,0,0,.345.149.751.751,0,0,0,.383-.138l4.519-3.221,4.519,3.221a.718.718,0,0,0,.383.138.55.55,0,0,0,.341-.149.607.607,0,0,0,.211-.689L14.5,13.3,19.1,10.008l.111-.1a.586.586,0,0,0-.452-1.023Z" transform="translate(-2.25 -3.375)" fill="#b39c34"/>
</svg>
