<svg xmlns="http://www.w3.org/2000/svg" width="18.247" height="18.247" viewBox="0 0 18.247 18.247">
  <g id="icon-tires-blue" transform="translate(0 -0.002)">
    <path id="Контур_68" data-name="Контур 68" d="M19.556,11.346A6.464,6.464,0,1,0,8.6,17.745a6.55,6.55,0,0,0,4.852,2.191A6.469,6.469,0,0,0,19.556,11.346Zm-1.589,5.6c-2.886-2.515-2.61-2.2-2.523-2.36l3.218,1.2A5.7,5.7,0,0,1,17.967,16.946ZM8.246,15.785c3.576-1.333,3.188-1.244,3.283-1.094L8.941,16.946A5.7,5.7,0,0,1,8.246,15.785ZM7.96,11.966l.714.253a4.933,4.933,0,0,0,.02,2.587l-.711.265A5.58,5.58,0,0,1,7.96,11.966Zm.923-1.888c2.932,2.468,2.647,2.159,2.562,2.316l-3.24-1.148A5.7,5.7,0,0,1,8.883,10.078Zm3.762,1.265a2.288,2.288,0,0,0-.64.37l-1.467-1.235A4.193,4.193,0,0,1,12.3,9.454Zm-3.237,3.2a4.189,4.189,0,0,1-.015-2.066l1.81.641a2.121,2.121,0,0,0,.006.753Zm.6,2.48a4.957,4.957,0,0,0,2.153,1.224l-.136.745a5.7,5.7,0,0,1-2.59-1.47Zm2.289.472a4.2,4.2,0,0,1-1.714-.974l1.448-1.261a2.272,2.272,0,0,0,.609.347Zm-.369-4.019a1.521,1.521,0,1,1,1.521,1.521A1.522,1.522,0,0,1,11.933,13.473Zm2.672-4.019a4.193,4.193,0,0,1,1.764,1.023L14.9,11.713a2.288,2.288,0,0,0-.64-.37Zm4.1,1.792c-3.6,1.275-3.211,1.193-3.3,1.042l2.625-2.21A5.7,5.7,0,0,1,18.7,11.246ZM17.5,14.54l-1.8-.671a2.12,2.12,0,0,0,.006-.753l1.81-.641A4.189,4.189,0,0,1,17.5,14.54Zm-2.627.717,1.448,1.261a4.2,4.2,0,0,1-1.714.974L14.262,15.6A2.272,2.272,0,0,0,14.872,15.257Zm-.13,2.986a4.957,4.957,0,0,0,2.153-1.224l.573.5a5.7,5.7,0,0,1-2.59,1.47Zm3.471-3.437a4.933,4.933,0,0,0,.02-2.587l.714-.253a5.583,5.583,0,0,1-.024,3.105ZM17.534,9.5l-.58.488A4.947,4.947,0,0,0,14.742,8.7l.136-.745A5.7,5.7,0,0,1,17.534,9.5Zm-3.4-1.683c-.685,3.769-.587,3.377-.677,3.377s.008.389-.677-3.377A5.236,5.236,0,0,1,14.131,7.815Zm-2.1.143.136.745A4.947,4.947,0,0,0,9.955,9.986L9.374,9.5A5.7,5.7,0,0,1,12.03,7.958Zm.747,11.173c.685-3.768.587-3.377.677-3.377s-.008-.391.677,3.377A5.236,5.236,0,0,1,12.777,19.132Z" transform="translate(-4.33 -4.349)" fill="#083c50"/>
    <path id="Контур_69" data-name="Контур 69" d="M18.247,9.125a9.124,9.124,0,1,0-9.125,9.124A9.132,9.132,0,0,0,18.247,9.125Zm-3.061,4.822a.38.38,0,0,0-.722.24l.352,1.056a8.329,8.329,0,0,1-5.16,2.226l.207-.621a.38.38,0,0,0-.722-.24l-.291.874a8.324,8.324,0,0,1-5.231-2.067l.681-.227a.38.38,0,0,0-.24-.722l-1.056.352A8.329,8.329,0,0,1,.779,9.659c.685.228.66.227.741.227a.38.38,0,0,0,.12-.741L.767,8.853A8.327,8.327,0,0,1,2.88,3.569c.215.431.261.614.542.614a.381.381,0,0,0,.34-.55l-.319-.638A8.331,8.331,0,0,1,8.59.781L8.383,1.4a.38.38,0,0,0,.722.24L9.4.768A8.327,8.327,0,0,1,14.68,2.881l-.4.2a.38.38,0,0,0,.34.68l.638-.319a8.331,8.331,0,0,1,2.214,5.148l-.621-.207a.38.38,0,0,0-.24.722l.874.291a8.324,8.324,0,0,1-2.067,5.231Z" transform="translate(0 0)" fill="#083c50"/>
    <circle id="Эллипс_3" data-name="Эллипс 3" cx="1" cy="1" r="1" transform="translate(8.124 8.126)" fill="#083c50"/>
  </g>
</svg>
