<svg xmlns="http://www.w3.org/2000/svg" width="22.059" height="22.027" viewBox="0 0 22.059 22.027">
  <g id="icon-rims-blue" transform="translate(0.015 -0.014)">
    <path id="Контур_70" data-name="Контур 70" d="M21.362,14.824A11.021,11.021,0,1,0,2.739,18.311,10.984,10.984,0,0,0,21.362,14.824ZM18.88,17.35l-4.855-4.229a3.723,3.723,0,0,0,.264-.444l6.04,2.252A10.111,10.111,0,0,1,18.88,17.35Zm-9.709.9A7.47,7.47,0,0,1,5.742,16.3l2.871-2.5a3.669,3.669,0,0,0,1.238.707ZM1.695,14.929l6.04-2.252A3.723,3.723,0,0,0,8,13.122L3.143,17.351A10.123,10.123,0,0,1,1.695,14.929ZM1.331,8.146l1.63.578A8.26,8.26,0,0,0,3,13.463l-1.619.6A10.081,10.081,0,0,1,1.331,8.146ZM3.037,4.837,7.962,8.982a3.625,3.625,0,0,0-.254.45L1.634,7.279A10.1,10.1,0,0,1,3.037,4.837ZM9.852,7.544a3.672,3.672,0,0,0-1.284.748L5.655,5.841A7.465,7.465,0,0,1,9.171,3.8Zm-5.994,5.6a7.38,7.38,0,0,1-.031-4.111L7.411,10.3a3.633,3.633,0,0,0,.014,1.512Zm4.4-2.115a2.755,2.755,0,1,1,2.755,2.755A2.758,2.758,0,0,1,8.257,11.027Zm4.6-7.226a7.465,7.465,0,0,1,3.516,2.04L13.455,8.292a3.672,3.672,0,0,0-1.284-.748Zm7.537,3.478L14.315,9.432a3.625,3.625,0,0,0-.254-.45l4.924-4.145A10.1,10.1,0,0,1,20.389,7.279Zm-2.224,5.863L14.6,11.813a3.633,3.633,0,0,0,.014-1.512L18.2,9.031A7.38,7.38,0,0,1,18.165,13.142ZM12.171,14.51A3.669,3.669,0,0,0,13.41,13.8l2.871,2.5a7.47,7.47,0,0,1-3.429,1.949Zm6.854-1.047a8.259,8.259,0,0,0,.036-4.739l1.63-.578a10.081,10.081,0,0,1-.047,5.92ZM18.39,4.138,17.07,5.249A8.382,8.382,0,0,0,13.016,2.9l.309-1.7A10.1,10.1,0,0,1,18.39,4.138ZM12.422,1.026c-2.387,13.133-.161.888-1.152,6.341a2.5,2.5,0,0,0-.518,0c-.576-3.17.784,4.313-1.152-6.341A9.95,9.95,0,0,1,12.422,1.026ZM8.7,1.2l.309,1.7A8.382,8.382,0,0,0,4.953,5.249L3.633,4.138A10.1,10.1,0,0,1,8.7,1.2ZM3.75,18.039l1.3-1.131a8.386,8.386,0,0,0,3.957,2.249l-.309,1.7A10.1,10.1,0,0,1,3.75,18.039ZM9.6,21.028c1.538-8.462,1.056-5.812,1.152-6.341a2.5,2.5,0,0,0,.518,0c.1.528-.386-2.121,1.152,6.341A9.95,9.95,0,0,1,9.6,21.028Zm3.725-.17-.309-1.7a8.391,8.391,0,0,0,3.957-2.249l1.3,1.132A10.1,10.1,0,0,1,13.325,20.858Z" transform="translate(0 0)" fill="#083c50"/>
    <path id="Контур_71" data-name="Контур 71" d="M23.673,21.837a1.837,1.837,0,1,0-1.837,1.837A1.838,1.838,0,0,0,23.673,21.837Zm-2.755,0a.918.918,0,1,1,.918.918A.919.919,0,0,1,20.918,21.837Z" transform="translate(-10.825 -10.81)" fill="#083c50"/>
  </g>
</svg>
