<svg xmlns="http://www.w3.org/2000/svg" width="252.305" height="48.254" viewBox="0 0 252.305 48.254"><path d="M430.34,240.487c-.317-.206-.643-.027-.961.066-.16.047-.325.079-.486.125-.978.273-2.042.58-3.091.882-.164-.009-1.77.494-2.264.642-1.317.391.342-.767-.01-1.173-.213-.246-.807-.075-1.372.151a8.67,8.67,0,0,1-3.164.3c-.083-.142,4.6-1.915,3.99-2.816-.281-.413-1.66-.781-3.861-.781a29.1,29.1,0,0,0-8.357,1.155c-2.583.77-3.1,1.639-2.545,2.409.461.642,1.472.9,5.459,1.009-.271.083-.563.141-.866.258-1.108.426-8.733,1.108-7.378-.666,1.673-2.19.446-1.737-1.047-1.349-.32.084-2.475.74-2.833.831-1.382.349-.135.039-1.518.383a.367.367,0,0,1-.076,0c-.073-.448.337-.639.55-.92.624-.819,1.3-1.6,1.927-2.416.185-.238.041-.476-.256-.483a3.3,3.3,0,0,0-1.041.206c-2.608.795-5.212,1.607-7.837,2.346-1.939.546-3.906.992-5.864,1.472a.559.559,0,0,1-.445-.051c-.174-.176,0-.365.114-.508.542-.684,1.12-1.339,1.636-2.04.269-.365.911-.711.646-1.164-.306-.524-.917-.14-1.386-.008q-6.045,1.714-12.086,3.443a1.6,1.6,0,0,1-.992.117c.511-.64,1.255-1.075,1.628-1.83.256-.519.71-1.068.255-1.646-.409-.519-1.014-.3-1.55-.166-2.88.721-5.741,1.51-8.56,2.443-1.767.585-3.525,1.188-5.245,1.9-.16.066-.387.237-.526.028-.093-.14.117-.273.211-.39.824-1.017,1.662-2.024,2.483-3.044.212-.264.614-.544.372-.9-.221-.329-.655-.144-1-.087a2.163,2.163,0,0,0-.223.081c-3.309.947-6.617,1.9-9.93,2.836-1.066.3-2.142.565-3.219.824-.177.042-.491.033-.55-.066-.121-.2.138-.319.282-.44.182-.154.381-.287.555-.449a1.775,1.775,0,0,0,.787-1.635c-.152-.782-.849-.979-1.5-1.192-.074-.025-.158-.021-.234-.04a12.08,12.08,0,0,0-4.145-.145,75.554,75.554,0,0,0-9.819,1.736c-2.586.6-5.111,1.411-7.676,2.084-.382.1-.75.271-1.14.05a17.016,17.016,0,0,0,1.835-2.127c.325-.394,1-.824.612-1.377-.341-.479-1.029-.171-1.563-.066a103.074,103.074,0,0,0-12.373,3.349c-.3.1-.6.209-.905.286-.088.022-.2-.058-.3-.091a.754.754,0,0,1,.081-.217c.522-.65,1.061-1.287,1.57-1.947.3-.388.917-.771.565-1.3-.312-.468-.951-.215-1.443-.119-2.06.4-4.1.893-6.125,1.445-2.444.666-4.875,1.376-7.27,2.207-.11.038-.263.081-.321-.043a.359.359,0,0,1,.069-.3c.632-.765,1.287-1.512,1.908-2.285.23-.286.73-.581.42-.986-.254-.332-.735-.131-1.118-.023-2.551.723-5.107,1.43-7.652,2.17-2.736.8-5.423,1.766-8.213,2.372a9.866,9.866,0,0,1-2.823.355c-.667-.049-.993-.3-1.124-.858a.991.991,0,0,1,.77-1.341c1.623-.513,3.256-1,4.878-1.513a2.828,2.828,0,0,0,1.447-.777.7.7,0,0,0,.125-.87c-.159-.235-.44-.115-.658-.048-1.665.511-3.334,1.014-4.989,1.556a4.624,4.624,0,0,1-2.765.245c-.836-.228-1.036-.091-1.391.675-.139.3-.233.575-.591.665-1.381.349-2.76.709-4.143,1.052-.1.025-.286-.007-.324-.074-.084-.148.029-.294.129-.415.832-1.012,1.676-2.014,2.495-3.036a5.884,5.884,0,0,1,1.606-1.388,32.311,32.311,0,0,0,8.042-6.647,18.594,18.594,0,0,0,3.949-7.124,4.179,4.179,0,0,0,.19-1.642c-.061-.511-.35-.683-.842-.529a3.474,3.474,0,0,0-1.312.8c-.728.674-1.459,1.348-2.136,2.071-3.883,4.146-7.481,8.538-11.106,12.907a5.275,5.275,0,0,1-1.947,1.494,54.935,54.935,0,0,1-8.413,2.9,12.536,12.536,0,0,1-2.857.683c-.062-.5.387-.713.625-1.031.6-.794,1.247-1.545,1.853-2.331.178-.231.024-.474-.27-.478a3.471,3.471,0,0,0-1.043.211c-2.882.868-5.761,1.747-8.657,2.566-1.676.474-3.381.844-5.073,1.261-.162.04-.357.045-.443-.08s.01-.307.11-.433c.62-.775,1.247-1.545,1.867-2.32a3.649,3.649,0,0,0,.479-.675c.122-.259.016-.453-.3-.483a4.513,4.513,0,0,0-1.621.34c-4.926,1.355-9.8,2.893-14.776,4.068-2.421.572-4.838,1.161-7.357,1.767a2.723,2.723,0,0,1,1.019-.773,27.61,27.61,0,0,0,3.81-2.852,5.213,5.213,0,0,0,.8-.875.514.514,0,0,0-.37-.877,8.069,8.069,0,0,0-1.422-.088q-8.165-.008-16.33-.007a4.162,4.162,0,0,1-1.445-.142c4.613-.981,8.918-2.031,13.183-3.236a159.92,159.92,0,0,0,20.619-7.253,18.532,18.532,0,0,0,2.861-1.454c.287-.19.708-.363.607-.788-.1-.4-.522-.406-.872-.474a16.681,16.681,0,0,0-3.205-.2q-16.152,0-32.3-.007c-.3,0-.721.164-.869-.145s.241-.543.432-.774q3.112-3.767,6.242-7.519a5.754,5.754,0,0,0,.573-.757c.2-.343-.022-.685-.409-.588a5.149,5.149,0,0,0-3.212,1.568c-2.018,2.555-4.17,5-6.227,7.529a1.728,1.728,0,0,1-1.513.7c-2.98-.028-5.96-.013-8.94-.013q-10.072,0-20.144.005a6.416,6.416,0,0,0-1.3.1c-.94.2-1.191.6-1,1.524a9.554,9.554,0,0,0,.283,1.032q4.082,12.626,8.172,25.249a6.007,6.007,0,0,0,.392.993,1.05,1.05,0,0,0,1.281.609,1.481,1.481,0,0,0,.814-.463c.463-.489.923-.985,1.353-1.5q10.127-12.192,20.236-24.4a2.235,2.235,0,0,1,1.9-.935c9.1,0,18.2-.035,27.3-.061.278,0,.556,0,.834.016.2.011.459,0,.517.209.064.224-.2.3-.36.385-1.55.8-3.128,1.544-4.745,2.2a148.311,148.311,0,0,1-19.958,6.2c-3.037.758-6.1,1.424-9.147,2.121-.391.09-.822.107-.916.6-.059.314.347.646.917.794a1.774,1.774,0,0,0,.353.053c.515.029,1.031.07,1.546.073,6.277.029,12.555.047,18.832.088.437,0,1.113-.252,1.254.271.119.443-.513.736-.884,1.015a19.523,19.523,0,0,1-3.291,1.906,62.693,62.693,0,0,1-11.033,4.043c-.305.082-.607.179-.907.28a.363.363,0,0,0-.261.356.426.426,0,0,0,.272.36,2.2,2.2,0,0,0,1.623.066c2.277-.527,4.556-1.045,6.831-1.582,7.286-1.719,14.613-3.274,21.807-5.372,1.281-.374,2.583-.679,4.078-1.068-.375.493-.606.813-.853,1.119-.523.649-1.063,1.286-1.576,1.942-.139.178-.33.406-.19.643a.705.705,0,0,0,.739.281c.511-.066,1.022-.147,1.526-.254,3.88-.817,7.686-1.91,11.473-3.078.5-.154.957-.571,1.544-.323a5.079,5.079,0,0,1-.921,1.217c-.465.593-.958,1.165-1.432,1.753a.423.423,0,0,0-.077.542.5.5,0,0,0,.533.175,5.051,5.051,0,0,0,.572-.159c.877-.249,1.757-.486,2.63-.748A98.318,98.318,0,0,0,272.06,240.1c.174-.075.434-.256.532-.117.169.239-.143.394-.275.561-.54.687-1.1,1.361-1.646,2.04-.275.34-.562.67-.824,1.019-.158.21-.436.426-.2.724.164.207.424.174.663.106.3-.086.611-.169.915-.256,2.4-.683,4.8-1.37,7.2-2.045.612-.173.617-.156.752.419a2.211,2.211,0,0,0,2.412,1.987,12.659,12.659,0,0,0,2.373-.13,48.483,48.483,0,0,0,7.234-1.894c2.227-.712,4.491-1.293,6.75-1.895.144-.038.315-.128.395.053.032.072-.059.225-.13.312-.6.739-1.216,1.468-1.816,2.209a7.285,7.285,0,0,0-.62.868.3.3,0,0,0,.334.452,7.688,7.688,0,0,0,1.152-.277c3.279-1.063,6.582-2.048,9.919-2.913,1.188-.308,2.389-.568,3.588-.833a.533.533,0,0,1,.436.094c.1.112.022.295-.086.427-.225.277-.444.56-.668.839-.523.649-1.053,1.294-1.57,1.948-.119.151-.249.331-.085.53a.506.506,0,0,0,.542.154c.382-.1.759-.226,1.137-.344,4.162-1.294,8.326-2.583,12.587-3.52.372-.081.85-.366,1.081.014.187.308-.279.606-.489.876-.586.752-1.207,1.476-1.8,2.221-.115.145-.249.323-.139.537.138.271.394.256.624.2.5-.121.993-.27,1.487-.415q5.805-1.71,11.609-3.424c.215.29-.033.427-.213.549a6.87,6.87,0,0,0-1.515,1.335c-.762.942-.512,1.688.674,2.016a7.085,7.085,0,0,0,1.764.24,27.536,27.536,0,0,0,8.891-1.389,2.195,2.195,0,0,1,1.712-.043,2.954,2.954,0,0,0,1.752.1c1.846-.308,3.593-.965,5.393-1.432,1.725-.447,3.446-.912,5.17-1.365.106-.028.276-.072.322-.022.139.15-.017.272-.109.383-.81.98-1.624,1.955-2.432,2.936a2.867,2.867,0,0,1-.829.663,39.488,39.488,0,0,0-10.349,8.693c-.532.616-1.031,1.252-1.514,1.9l1.72-.206a40.7,40.7,0,0,1,2.741-3.278,32.573,32.573,0,0,1,4.712-4.178,1.524,1.524,0,0,0,.472-.419s0-.007.006-.009.013-.018.018-.028c.006.009.008.017.014.025v0h0c.225.348-.07.554-.256.775-1.228,1.455-2.468,2.9-3.7,4.354q-1.385,1.642-2.768,3.286l-.394.047-3.126.374-41.06,4.914-95.9-12.11-.005.163,95.812,14.84,39.948-5.914,0,.006,1.674-.254,1.5-.222q-1.059,1.257-2.117,2.514a2.746,2.746,0,0,1-.9.854,5.678,5.678,0,0,1,.769-1.877c.1-.179.207-.348.311-.522l-1.614.249a19.707,19.707,0,0,0-1.243,2.814,5.109,5.109,0,0,0-.315,1.265.962.962,0,0,0,1.418.989,5.384,5.384,0,0,0,1.645-1.16c1.228-1.132,2.355-2.363,3.466-3.608.589-.659,1.17-1.323,1.753-1.986l49.7-7.97.028-.162-48.189,6.377q4.191-4.818,8.247-9.75a2.514,2.514,0,0,1,.984-.838c.884-.35,1.767-.707,2.637-1.091a.99.99,0,0,1,1.1.127,4.716,4.716,0,0,0,1.976.769,15.188,15.188,0,0,0,5.676-.191c2.806-.531,5.524-1.411,8.278-2.147,1.76-.471,3.518-.95,5.278-1.42.107-.029.282-.059.33,0,.134.15-.035.271-.119.376-.574.71-1.173,1.4-1.73,2.125-.249.323-.755.645-.471,1.1.266.427.781.229,1.212.157a75.758,75.758,0,0,0,8.653-2.106c1.636-.474,3.254-1.008,4.882-1.509.145-.044.342-.131.449.008s-.053.283-.145.393c-.61.732-1.235,1.453-1.838,2.191-.215.264-.618.532-.427.9.245.476.689.2,1.055.1,1.829-.521,3.656-1.048,5.485-1.566.039-.011.41-.138.908-.309a.2.2,0,0,1,.188.1c.161.348-.259,1.006.752,1.671.661.436,2.743.587,5.071.369a34.593,34.593,0,0,0,7.768-1.955,13.51,13.51,0,0,1,2.965.151c.222.2-1.1,1.015-.782,1.459,0,0-.062.28.464.378.307.057.391-.05,2.291-.606,1.33-.389,4.117-1.145,5.034-1.428l0,0c.613-.171,1.232-.344,1.89-.531a3.729,3.729,0,0,0,1.416-.581C430.193,241.17,430.523,240.606,430.34,240.487ZM285.662,227.962c1.118-1.333,2.221-2.678,3.331-4.017.276.457-.046.825-.216,1.2a22.381,22.381,0,0,1-5.215,7,26.392,26.392,0,0,1-2.662,2.182,1.488,1.488,0,0,1-.95.431.094.094,0,0,1-.019.035c-.008,0,0-.006-.014-.006Q282.791,231.376,285.662,227.962Zm-77.835.5q-9.109,11-18.235,21.983c-.91,1.1-1.234,1.054-1.727-.26q-4.008-10.683-8-21.374a4.526,4.526,0,0,1-.192-.561c-.083-.366.035-.636.441-.676.354-.035.712-.041,1.069-.041q6.487,0,12.975,0,6.607,0,13.213.005c.3,0,.723-.147.881.155C208.428,228.02,208.016,228.232,207.827,228.46Zm139.217,11.878c-.344.087-.693.152-1.037.24a5.493,5.493,0,0,0-.793.243c-.313.134-.576.355-.357.73.3.521-.013.672-.414.8a20.966,20.966,0,0,1-5.339,1.009,3.458,3.458,0,0,1-1.285-.2.545.545,0,0,1-.317-.918,2.841,2.841,0,0,1,.951-.881,13.855,13.855,0,0,1,7.668-2.068,2.4,2.4,0,0,1,.917.213c.193.086.363.213.37.417A.428.428,0,0,1,347.044,240.338Zm25.736.574a1.725,1.725,0,0,1-.669.816,8.321,8.321,0,0,1-7.33,1.263,1.166,1.166,0,0,1-.3-.195,1.023,1.023,0,0,1,.608-.358q3.431-.941,6.867-1.862a2.268,2.268,0,0,1,.586-.071C372.833,240.505,372.854,240.7,372.78,240.912Zm43.366.578c-4.082-.075-4.4-.055-4.876-.6-.4-.462-.044-.791,1.382-1.2a26.988,26.988,0,0,1,4.243-.721c1.66-.066,1.843.143,2.076.376C419.464,239.835,418.451,240.482,416.145,241.49Z" transform="translate(-178.087 -215.496)" fill="#083c50"/></svg>